<svg xmlns="http://www.w3.org/2000/svg" viewBox="0 0 50 50" width="30px" height="30px">
  <defs>
    <mask id="twitterMask">
      <circle cx="25" cy="25" r="23" fill="white"/>
      <path d="M41 17.5c-1.1.5-2.3.7-3.5.8 1.3-.8 2.2-2 2.7-3.4-1.2.7-2.5 1.2-3.9 1.5-1.1-1.2-2.7-2-4.4-2-3.3 0-6 2.7-6 6 0 .5.1.9.2 1.4-5-.2-9.5-2.6-12.5-6.3-.5.9-.8 1.9-.8 3 0 2.1 1.1 3.9 2.7 5-1 0-1.9-.3-2.7-.7v.1c0 2.9 2.1 5.3 4.8 5.9-.5.1-1 .2-1.6.2-.4 0-.7 0-1.1-.1.7 2.4 3 4.1 5.6 4.2-2 1.6-4.7 2.5-7.5 2.5-.5 0-1 0-1.5-.1 2.7 1.7 5.9 2.7 9.3 2.7 11.1 0 17.2-9.2 17.2-17.2v-.8c1.2-.8 2.2-1.9 3-3.1z" fill="black"/>
    </mask>
  </defs>
  <circle cx="25" cy="25" r="23" fill="#ffffff" mask="url(#twitterMask)"/>
</svg>