<?xml version="1.0" encoding="UTF-8"?>
<svg version="1.1" xmlns="http://www.w3.org/2000/svg" width="310" height="312">
<path d="M0 0 C-0.06029967 1.91752953 -0.14916707 3.83417426 -0.25 5.75 C-0.29640625 6.81734375 -0.3428125 7.8846875 -0.390625 8.984375 C-1.13019965 12.64432133 -2.08826595 13.71930729 -5 16 C-6.75802794 17.03835185 -8.55288418 18.01623416 -10.375 18.9375 C-21.13978846 24.68443886 -27.30294569 32.32509166 -31 44 C-33.86481792 54.15708172 -31.43217294 63.95865154 -26.4375 73 C-12.32377169 94.90890185 16.22075507 101.54490118 39.37109375 110.453125 C58.99598254 118.09434007 73.29018192 127.2778991 82.30078125 146.98046875 C88.91882495 162.25756799 89.73505222 182.05576614 84.34375 197.90234375 C78.52454169 211.31697221 78.52454169 211.31697221 73 215 C73.48342213 210.64920086 74.09188896 206.40803119 75 202.125 C76.03183712 197.09671913 76.65149616 192.11968739 77 187 C77.08121094 185.97712891 77.08121094 185.97712891 77.1640625 184.93359375 C77.87541929 167.89336525 71.36038412 150.99115923 60 138.375 C46.88523108 126.2156116 28.0611486 119.71741284 11.69555664 113.36694336 C-0.12739633 108.77198868 -11.16986145 103.5076136 -22.10668945 97.078125 C-24.0389337 95.97782963 -26.00288418 94.97677472 -28 94 C-15.68808739 105.91358603 -0.59010099 111.19905926 15.10644531 117.18457031 C39.02746799 126.3357607 58.70060799 135.12808462 70.703125 158.875 C76.37266473 172.53654152 76.4977141 191.61553693 71.1875 205.42578125 C70.795625 206.27527344 70.40375 207.12476563 70 208 C69.649375 208.79792969 69.29875 209.59585938 68.9375 210.41796875 C65.75007366 216.84815869 60.99299618 221.91391406 56 227 C55.38382812 227.64066406 54.76765625 228.28132812 54.1328125 228.94140625 C46.05940373 236.6856417 35.08605855 241.74834823 24 243 C25.44387052 239.31969959 27.04414945 238.13338328 30.5 236.3125 C44.85572843 228.09737217 55.0625837 215.65183724 59.43359375 199.69140625 C62.62509793 184.52625882 60.3382128 170.26057576 52.17578125 157.046875 C35.92946071 133.68281482 6.63439706 125.77945354 -18.90625 116.578125 C-21.27149858 115.72058265 -23.63608951 114.86122408 -26 114 C-27.20148682 113.56341064 -28.40297363 113.12682129 -29.64086914 112.67700195 C-30.79192139 112.24863037 -31.94297363 111.82025879 -33.12890625 111.37890625 C-34.15314697 111.00064697 -35.1773877 110.6223877 -36.23266602 110.23266602 C-40.62735666 108.27511921 -43.77968666 105.52314097 -47 102 C-47.54140625 101.41605469 -48.0828125 100.83210938 -48.640625 100.23046875 C-57.53885267 89.5570896 -59.19009561 76.71870252 -59.25 63.375 C-59.270625 62.24964844 -59.29125 61.12429687 -59.3125 59.96484375 C-59.38264175 44.79669086 -54.87253755 32.38305897 -44.36328125 21.375 C-43.58339844 20.59125 -42.80351563 19.8075 -42 19 C-41.33355469 18.29875 -40.66710937 17.5975 -39.98046875 16.875 C-29.93714063 7.04290823 -14.17469009 -0.40863971 0 0 Z " fill="#FFFFFF" transform="translate(145,51)"/>
<path d="M0 0 C-2.49701723 3.74552584 -5.42922108 4.85116548 -9.375 6.6875 C-21.06794666 12.34478614 -31.15498069 19.54120467 -41 28 C-41.9178125 28.77085938 -42.835625 29.54171875 -43.78125 30.3359375 C-58.55628849 43.16033889 -69.31191024 59.26245201 -72 79 C-72.19466684 82.68539731 -72.19935961 86.31553912 -72 90 C-71.70867187 89.17757812 -71.41734375 88.35515625 -71.1171875 87.5078125 C-68.41354683 80.14506778 -65.30691157 73.55656984 -61 67 C-57.14896699 67.53675903 -55.68202413 69.11600923 -53.25 72.0625 C-52.32960938 73.16271484 -52.32960938 73.16271484 -51.390625 74.28515625 C-50.93171875 74.85105469 -50.4728125 75.41695313 -50 76 C-50.3609375 75.45472656 -50.721875 74.90945312 -51.09375 74.34765625 C-55.2685104 67.5636706 -56.12289521 62.95887263 -54.37109375 55.22265625 C-51.43084312 45.18888616 -45.86601983 35.87080322 -39 28 C-36.25 26.6875 -36.25 26.6875 -34 26 C-34.53815732 30.46276805 -35.67299353 33.59992883 -37.875 37.5 C-45.26507607 52.03144765 -46.8386513 71.36053132 -42.4375 87.125 C-34.77355637 107.63339271 -20.33456124 119.9306955 -1 129 C-3.34082638 132.51123957 -4.84058611 132.79815058 -8.85546875 133.64453125 C-15.72076721 134.78249511 -20.30184048 133.82073124 -26 130 C-40.63443106 118.76548727 -49.81930875 96.91557605 -56 80 C-56.66 80 -57.32 80 -58 80 C-61.81085857 87.17773362 -65.00878667 94.10501383 -67 102 C-67.66 102 -68.32 102 -69 102 C-65.29522537 115.45418154 -57.96937234 126.22596735 -45.98046875 133.42578125 C-34.5052138 139.48676126 -21.55515765 141.57146024 -8.7890625 138.87890625 C-4.32392628 137.47182551 -0.23254736 135.32733832 3.9609375 133.265625 C7.97090823 131.5956629 10.73125068 131.4977942 15 132 C16 135 16 135 15.04296875 137.42578125 C12.29026361 140.89429499 9.26664816 142.32480211 5.3125 144.1875 C4.62994141 144.52974609 3.94738281 144.87199219 3.24414062 145.22460938 C-11.55772163 152.422871 -26.80565562 151.02823149 -42 146 C-58.02720408 139.73758891 -69.81035351 128.14150164 -76.96875 112.54296875 C-83.94213539 95.34723433 -83.25204148 74.05788919 -76.17041016 57.00195312 C-72.07778917 47.55232419 -67.0220934 39.59408368 -60 32 C-59.34902344 31.2575 -58.69804688 30.515 -58.02734375 29.75 C-44.14471275 14.7706679 -21.06750693 -0.48994202 0 0 Z M-71 98 C-70 101 -70 101 -70 101 Z " fill="#FFFFFF" transform="translate(122,51)"/>
<path d="M0 0 C10.27177044 8.61884186 18.1084082 20.3580913 19.37890625 33.99609375 C20.2847692 46.91463194 19.96604024 60.91679946 12.37890625 71.99609375 C12.04890625 71.99609375 11.71890625 71.99609375 11.37890625 71.99609375 C11.39985352 71.38314453 11.42080078 70.77019531 11.44238281 70.13867188 C12.04826356 49.630759 10.73495119 32.0630182 -3.9140625 16.41796875 C-20.82104038 1.29195679 -50.29994703 -6.30591439 -72.62109375 -6.00390625 C-71.97261475 -5.83375 -71.32413574 -5.66359375 -70.65600586 -5.48828125 C-46.95831749 0.82271004 -25.70285767 9.02108148 -12.6796875 31.3203125 C-3.6989936 47.9176319 -1.83981581 66.28941479 -6.7800293 84.5300293 C-9.38930529 93.161563 -13.78714798 101.90871349 -20.62109375 107.99609375 C-21.61109375 108.32609375 -22.60109375 108.65609375 -23.62109375 108.99609375 C-24.53468595 106.5171393 -24.80549582 105.41908622 -23.73046875 102.953125 C-23.281875 102.24542969 -22.83328125 101.53773438 -22.37109375 100.80859375 C-14.50063906 87.51627028 -13.05256386 69.14396906 -16.62109375 54.18359375 C-20.42028261 43.00006597 -25.88185307 32.06684774 -34.62109375 23.99609375 C-35.31203125 23.34769531 -36.00296875 22.69929688 -36.71484375 22.03125 C-47.69102785 12.53985793 -61.24946142 5.91832471 -74.95898438 1.41577148 C-80.31037018 -0.44476565 -80.31037018 -0.44476565 -82.12109375 -3.703125 C-82.28609375 -4.46238281 -82.45109375 -5.22164062 -82.62109375 -6.00390625 C-80.97109375 -6.66390625 -79.32109375 -7.32390625 -77.62109375 -8.00390625 C-77.62109375 -8.66390625 -77.62109375 -9.32390625 -77.62109375 -10.00390625 C-51.47464034 -14.76811902 -22.5046377 -16.7972015 0 0 Z " fill="#FFFFFF" transform="translate(253.62109375,151.00390625)"/>
<path d="M0 0 C4.38827229 2.59472532 6.7870469 5.60141257 8.75 10.3125 C9.45411625 13.12896501 9.66971728 15.42730631 9.5 18.3125 C5.99660011 17.14470004 5.46017563 16.14247526 3.3125 13.25 C0.86043821 10.32980438 0.86043821 10.32980438 -2.453125 8.64453125 C-7.62649872 8.43067131 -12.4199677 10.17401361 -16.5 13.3125 C-23.32600251 21.55777036 -23.41741333 31.05271708 -22.5 41.3125 C-21.15316509 47.54911772 -18.1095916 51.61122186 -12.7890625 55.09375 C-2.12484233 60.77162832 9.77066799 59.63100992 21.5 59.3125 C22.125 62.6875 22.125 62.6875 22.5 66.3125 C20.5 68.3125 20.5 68.3125 18.25 68.54296875 C11.95100335 68.44454693 5.75506008 68.07233376 -0.5 67.3125 C7.3134853 71.27404666 14.91045466 73.63282738 23.5 75.3125 C24.625 79.0625 24.625 79.0625 23.5 81.3125 C12.04174182 80.4420881 2.12905629 78.90815477 -8.5 74.3125 C-9.52609375 73.89226562 -10.5521875 73.47203125 -11.609375 73.0390625 C-24.09214753 67.44445201 -34.91108306 57.17220373 -40.875 44.8125 C-43.65697261 37.20609387 -43.95254225 28.06571273 -41.58203125 20.30859375 C-40.39654975 17.7956799 -39.08750657 15.59004276 -37.5 13.3125 C-37.08878906 12.68085938 -36.67757812 12.04921875 -36.25390625 11.3984375 C-28.42093753 0.8460108 -12.4720892 -5.82500588 0 0 Z " fill="#FFFFFF" transform="translate(121.5,216.6875)"/>
<path d="M0 0 C1.43861294 0.08746284 2.87597508 0.19565348 4.3125 0.3125 C5.11300781 0.37050781 5.91351563 0.42851562 6.73828125 0.48828125 C9.39993992 1.09048727 10.21404473 2.00302408 12 4 C13.175625 4.4640625 13.175625 4.4640625 14.375 4.9375 C17.7395671 6.29934859 19.52880657 7.2759486 22 10 C22.66701591 13.53963042 22.4627701 17.01170751 22.3046875 20.59765625 C22.27824158 21.65148499 22.25179565 22.70531372 22.22454834 23.79107666 C22.13257804 27.21610596 22.00453055 30.63870285 21.875 34.0625 C21.80314834 36.40968816 21.73332597 38.75693932 21.66552734 41.10424805 C21.52881173 45.69574395 21.37771654 50.28638197 21.21289062 54.87695312 C21.03755087 59.78759274 20.90223271 64.69676536 20.796875 69.609375 C19.81219208 111.37561583 19.81219208 111.37561583 12 127 C11.34 127 10.68 127 10 127 C7.93971614 119.35894723 6.34759251 111.86820517 5.5 104 C5.37963379 102.90405518 5.25926758 101.80811035 5.13525391 100.67895508 C2.55089053 75.19472497 1.6133881 49.49806862 0.41796875 23.91796875 C0.35511185 22.59776985 0.35511185 22.59776985 0.29098511 21.25090027 C-0.03050731 14.16336817 -0.10896832 7.09504816 0 0 Z M11 7 C12 9 12 9 12 9 Z " fill="#FFFFFF" transform="translate(144,183)"/>
<path d="M0 0 C7.13471703 4.90594221 11.21073884 11.07004748 13.11328125 19.453125 C14.06203125 19.4325 15.01078125 19.411875 15.98828125 19.390625 C19.11328125 19.453125 19.11328125 19.453125 21.11328125 20.453125 C21.11328125 21.113125 21.11328125 21.773125 21.11328125 22.453125 C19.85515625 22.7625 18.59703125 23.071875 17.30078125 23.390625 C14.6066869 24.38493047 13.41868505 24.87837985 12.0546875 27.4453125 C11.5869235 29.01509676 11.14882156 30.59397554 10.73828125 32.1796875 C8.85371795 39.0347865 3.29087753 43.94656723 -2.625 47.49609375 C-10.41840798 51.05068882 -20.36982961 50.70805749 -28.32421875 47.890625 C-35.85271155 44.35507666 -40.05164652 39.11900644 -43.2578125 31.56640625 C-43.88671875 29.453125 -43.88671875 29.453125 -43.88671875 25.453125 C-46.52671875 25.123125 -49.16671875 24.793125 -51.88671875 24.453125 C-51.88671875 23.133125 -51.88671875 21.813125 -51.88671875 20.453125 C-50.33984375 20.329375 -50.33984375 20.329375 -48.76171875 20.203125 C-45.73257286 19.37147573 -45.00079737 18.64521111 -43.3671875 15.89453125 C-42.40376773 13.76863803 -41.44426908 11.64096437 -40.48828125 9.51171875 C-37.77429016 4.32865772 -33.81943623 0.99228169 -28.68359375 -1.703125 C-20.13891118 -4.28085047 -8.01877803 -3.93321755 0 0 Z M-7.88671875 3.453125 C-6.49240313 6.45730262 -4.80890264 8.93513073 -2.82421875 11.578125 C0.43339157 16.40480434 1.40660811 20.65739077 1.11328125 26.453125 C0.30078125 29.515625 0.30078125 29.515625 -0.88671875 31.453125 C-1.54671875 31.783125 -2.20671875 32.113125 -2.88671875 32.453125 C-2.92539063 31.13248047 -2.92539063 31.13248047 -2.96484375 29.78515625 C-3.0215625 28.62371094 -3.07828125 27.46226563 -3.13671875 26.265625 C-3.183125 25.11707031 -3.22953125 23.96851562 -3.27734375 22.78515625 C-3.98372183 18.92271712 -5.13217471 17.20766904 -7.88671875 14.453125 C-10.52132823 13.57369096 -10.52132823 13.57369096 -12.88671875 13.453125 C-12.46519531 13.92363281 -12.04367188 14.39414063 -11.609375 14.87890625 C-11.06152344 15.50152344 -10.51367188 16.12414062 -9.94921875 16.765625 C-9.40394531 17.38050781 -8.85867187 17.99539062 -8.296875 18.62890625 C-5.20564789 22.62780669 -5.73412042 26.64627775 -5.88671875 31.453125 C-6.21671875 32.113125 -6.54671875 32.773125 -6.88671875 33.453125 C-8.94921875 34.078125 -8.94921875 34.078125 -10.88671875 34.453125 C-10.85191406 33.54820313 -10.85191406 33.54820313 -10.81640625 32.625 C-10.79835937 31.82578125 -10.7803125 31.0265625 -10.76171875 30.203125 C-10.73851562 29.41421875 -10.7153125 28.6253125 -10.69140625 27.8125 C-10.90388095 25.24580559 -11.6001777 23.6615183 -12.88671875 21.453125 C-14.35843265 25.86826669 -13.99471089 29.95285554 -12.88671875 34.453125 C-10.76126511 36.67868603 -10.76126511 36.67868603 -7.88671875 37.453125 C-7.08234375 37.783125 -6.27796875 38.113125 -5.44921875 38.453125 C-2.18334015 38.453125 -0.5971366 37.23256124 1.75390625 35.0390625 C4.86049161 31.41471292 5.97877033 27.68614178 6.48828125 23.015625 C5.65357137 15.0858811 3.19625669 10.91037162 -2.94921875 5.80078125 C-4.9462266 4.27656147 -4.9462266 4.27656147 -7.88671875 3.453125 Z M-34.26171875 11.515625 C-37.48076317 17.33466684 -37.53348472 22.92510044 -36.88671875 29.453125 C-35.55355851 32.77022986 -33.40410793 34.93573582 -30.88671875 37.453125 C-26.82905364 37.30284111 -24.58582395 37.04467555 -21.44921875 34.390625 C-20.93359375 33.75125 -20.41796875 33.111875 -19.88671875 32.453125 C-20.62921875 31.999375 -21.37171875 31.545625 -22.13671875 31.078125 C-25.93776561 27.449853 -27.21230776 23.35475271 -28.88671875 18.453125 C-29.21671875 18.453125 -29.54671875 18.453125 -29.88671875 18.453125 C-30.39965845 22.65923057 -29.88413634 24.83418482 -27.38671875 28.140625 C-26.92265625 28.70136719 -26.45859375 29.26210937 -25.98046875 29.83984375 C-24.88671875 31.453125 -24.88671875 31.453125 -24.88671875 34.453125 C-27.19921875 34.765625 -27.19921875 34.765625 -29.88671875 34.453125 C-32.97481487 30.81358315 -33.64398192 27.14603702 -33.88671875 22.453125 C-33.40934004 20.0041722 -32.70829117 17.82118668 -31.88671875 15.453125 C-30.89671875 15.453125 -29.90671875 15.453125 -28.88671875 15.453125 C-28.47421875 14.31875 -28.06171875 13.184375 -27.63671875 12.015625 C-25.88671875 8.453125 -25.88671875 8.453125 -24.07421875 7.546875 C-20.98429576 7.41444973 -19.61673954 8.6035512 -17.13671875 10.390625 C-16.3375 10.95652344 -15.53828125 11.52242187 -14.71484375 12.10546875 C-14.1115625 12.55019531 -13.50828125 12.99492188 -12.88671875 13.453125 C-12.55671875 11.803125 -12.22671875 10.153125 -11.88671875 8.453125 C-14.87511762 5.46472613 -16.51146537 4.50154479 -20.76171875 3.953125 C-26.7983211 4.29481947 -30.61272771 6.81034708 -34.26171875 11.515625 Z M-23.88671875 14.453125 C-23.51262624 19.61310877 -23.51262624 19.61310877 -20.82421875 23.890625 C-20.18484375 24.40625 -19.54546875 24.921875 -18.88671875 25.453125 C-18.0328477 22.14745011 -18.0328477 22.14745011 -17.88671875 18.453125 C-19.55460807 15.95034589 -19.55460807 15.95034589 -21.88671875 14.453125 C-22.54671875 14.453125 -23.20671875 14.453125 -23.88671875 14.453125 Z M-18.88671875 25.453125 C-18.22671875 27.103125 -17.56671875 28.753125 -16.88671875 30.453125 C-16.55671875 29.463125 -16.22671875 28.473125 -15.88671875 27.453125 C-16.87671875 26.793125 -17.86671875 26.133125 -18.88671875 25.453125 Z M-19.88671875 40.453125 C-20.54671875 41.113125 -21.20671875 41.773125 -21.88671875 42.453125 C-20.01028114 44.32956261 -17.38866174 43.63297487 -14.89453125 43.68359375 C-12.56997547 43.57143837 -12.56997547 43.57143837 -9.88671875 41.453125 C-11.50995961 41.23150171 -13.13543975 41.02622697 -14.76171875 40.828125 C-15.66664063 40.71210937 -16.5715625 40.59609375 -17.50390625 40.4765625 C-18.68339844 40.46496094 -18.68339844 40.46496094 -19.88671875 40.453125 Z " fill="#FFFFFF" transform="translate(171.88671875,76.546875)"/>
<path d="M0 0 C6.19228466 5.96850043 5.06892925 19.18168288 5.23669434 27.33340454 C5.27563561 30.71763976 5.27754299 34.10071433 5.26074219 37.48510742 C5.24988033 40.09121251 5.26078305 42.69664812 5.2734375 45.30273438 C5.2721179 46.9843765 5.26955965 48.66601821 5.265625 50.34765625 C5.26967346 51.11441177 5.27372192 51.8811673 5.27789307 52.67115784 C5.23641979 57.46453395 4.65700793 61.482646 3 66 C-3.40037232 69.20018616 -14.64780869 67.52809509 -21.1875 65.375 C-25.85458377 63.40289393 -28.28398649 61.25508783 -31 57 C-33.2996927 50.1009219 -32.85845861 42.92564744 -29.75 36.375 C-27.97099071 32.9817045 -26.62340043 31.34382424 -23 30 C-18.38536126 29.50908099 -15.63864991 30.06886535 -12 33 C-10.10276253 36.50988933 -9.54815902 40.07152701 -9 44 C-4.05886947 38.23534771 -2.31823596 33.41385153 -2.51171875 25.84765625 C-3.40419138 20.64275585 -6.04675473 17.38287655 -10 14 C-13.87385044 11.66507645 -17.83035678 9.74590972 -22 8 C-22 7.01 -22 6.02 -22 5 C-20.25093469 4.35163958 -18.50070781 3.70641216 -16.75 3.0625 C-15.77546875 2.70285156 -14.8009375 2.34320313 -13.796875 1.97265625 C-9.04694868 0.3207964 -5.08243789 -0.46203981 0 0 Z " fill="#FFFFFF" transform="translate(139,203)"/>
<path d="M0 0 C13.49103086 1.01278277 24.50886242 6.02091366 33.8203125 15.95703125 C38.9870187 22.31792898 40.44108464 28.19730818 40.16015625 36.35546875 C39.32734023 44.35519447 35.28837487 50.19997614 29.8828125 56.01953125 C26.9453125 58.08203125 26.9453125 58.08203125 24.8828125 59.01953125 C24.5528125 58.35953125 24.2228125 57.69953125 23.8828125 57.01953125 C24.1921875 56.35953125 24.5015625 55.69953125 24.8203125 55.01953125 C27.11692899 48.53496704 26.40883731 41.60769286 23.97265625 35.2421875 C19.10181903 25.30847289 11.0823421 19.90551917 1.2578125 15.33203125 C-1.1171875 14.01953125 -1.1171875 14.01953125 -1.7265625 12.23046875 C-2.13242735 9.93327368 -2.47404901 7.64951392 -2.7421875 5.33203125 C-2.88527344 4.15060547 -2.88527344 4.15060547 -3.03125 2.9453125 C-3.05960938 2.30980469 -3.08796875 1.67429688 -3.1171875 1.01953125 C-2.1171875 0.01953125 -2.1171875 0.01953125 0 0 Z " fill="#FFFFFF" transform="translate(171.1171875,51.98046875)"/>
<path d="M0 0 C8.2296154 1.25233278 13.75324141 6.96405062 18.83203125 13.27734375 C27.11095016 25.20317883 30.25697315 37.52094216 29 52 C26.42346796 64.55866516 19.47622341 75.57934175 9 83 C5.03236878 85.21609782 1.58711325 87 -3 87 C-3.57007576 77.30871212 -3.57007576 77.30871212 0 73 C0.7425 72.443125 1.485 71.88625 2.25 71.3125 C9.98915382 64.80457519 15.04728769 54.87305944 17 45 C18.14495187 30.60363796 15.13958601 19.81656659 6.21875 8.55859375 C4.05778667 5.99282066 4.05778667 5.99282066 1.71875 3.78515625 C0 2 0 2 0 0 Z " fill="#FFFFFF" transform="translate(171,194)"/>
<path d="M0 0 C3 1 3 1 4.3515625 3.08203125 C9.30027549 13.69292198 10.3059241 22.61999946 6.4453125 33.796875 C4.07976569 39.0394382 1.02795941 43.87278902 -3 48 C-3.99 48 -4.98 48 -6 48 C-6.02708567 46.39592672 -6.04643483 44.7917215 -6.0625 43.1875 C-6.07410156 42.29417969 -6.08570313 41.40085938 -6.09765625 40.48046875 C-6 38 -6 38 -5 35 C-4.87473694 33.34515342 -4.79880056 31.68631709 -4.75390625 30.02734375 C-4.72103516 29.04443359 -4.68816406 28.06152344 -4.65429688 27.04882812 C-4.59390834 25.00204215 -4.5365324 22.95516469 -4.48242188 20.90820312 C-3.89657638 3.89657638 -3.89657638 3.89657638 0 0 Z " fill="#FFFFFF" transform="translate(175,212)"/>
<path d="M0 0 C8.84319462 2.21079866 15.86608218 8.65380846 21 16 C27.70419657 27.75931491 30.446084 39.59821582 28 53 C26.67297122 57.7839945 25.22525656 62.54948689 23 67 C22.34 67 21.68 67 21 67 C21.02094727 66.35675781 21.04189453 65.71351563 21.06347656 65.05078125 C21.65659818 43.99871772 19.86490468 23.51653897 5.6875 6.6875 C4.24605611 5.24605611 2.80072906 3.80819589 1.33203125 2.39453125 C0 1 0 1 0 0 Z " fill="#FFFFFF" transform="translate(233,164)"/>
<path d="M0 0 C5.51930314 1.73463813 8.41385555 5.28167685 12.25 9.4375 C15.29673859 12.27650641 18.50772899 14.43601561 22.01171875 16.66796875 C24 18 24 18 26 20 C26 21.32 26 22.64 26 24 C13.26802714 24.75262894 13.26802714 24.75262894 8.52734375 21.44921875 C2.61594869 15.84019684 -0.46775455 9.12883961 -1 1 C-0.67 0.67 -0.34 0.34 0 0 Z " fill="#FFFFFF" transform="translate(65,157)"/>
<path d="M0 0 C6 1 6 1 8.0625 2.6875 C8.701875 3.120625 9.34125 3.55375 10 4 C12.47627099 3.36078035 12.47627099 3.36078035 15 2 C16.9947682 1.31783853 18.99427405 0.64923636 21 0 C21.02691685 2.45840605 21.04679802 4.91651882 21.0625 7.375 C21.07087891 8.07367188 21.07925781 8.77234375 21.08789062 9.4921875 C21.11328125 14.7734375 21.11328125 14.7734375 20 17 C13.04090312 17.63264517 7.52884036 15.34744822 1 13 C0.67 8.71 0.34 4.42 0 0 Z " fill="#FFFFFF" transform="translate(144,128)"/>
<path d="M0 0 C3.23613354 1.74253345 3.82395315 2.47185944 5 6 C5.37066773 11.00401435 5.09881835 13.98301324 2 18 C-1.7373856 20.4915904 -3.57331583 20.45793285 -8 20 C-10.875 18.5625 -10.875 18.5625 -13 16 C-14.3061051 11.67856585 -14.52716392 8.2388352 -12.75 4.0625 C-9.06972403 -0.27496811 -5.40954849 -0.71981895 0 0 Z M-8 9 C-7.6814823 11.10820797 -7.6814823 11.10820797 -7 13 C-5.02 13.495 -5.02 13.495 -3 14 C-1.39092892 11.62387135 -1.39092892 11.62387135 0 9 C-0.33 8.34 -0.66 7.68 -1 7 C-4.95457848 6.65176193 -4.95457848 6.65176193 -8 9 Z " fill="#FFFFFF" transform="translate(160,17)"/>
<path d="M0 0 C1.53202706 0.25195908 3.05257128 0.57596777 4.5625 0.9375 C5.38878906 1.13214844 6.21507812 1.32679687 7.06640625 1.52734375 C8.02353516 1.76130859 8.02353516 1.76130859 9 2 C9 2.99 9 3.98 9 5 C8.01 5.495 8.01 5.495 7 6 C7.99 6.66 8.98 7.32 10 8 C9 11 9 11 7 12 C7.99 12.99 8.98 13.98 10 15 C8.02 15.99 8.02 15.99 6 17 C7.32 18.32 8.64 19.64 10 21 C9.34 21.66 8.68 22.32 8 23 C8.66 23.33 9.32 23.66 10 24 C10 24.66 10 25.32 10 26 C6.37 26 2.74 26 -1 26 C-2.125 18.25 -2.125 18.25 -1 16 C-0.95406453 13.47067838 -0.95306269 10.96507389 -1 8.4375 C-1.0459067 5.95165223 -1.04698655 3.48735051 -1 1 C-0.67 0.67 -0.34 0.34 0 0 Z " fill="#FFFFFF" transform="translate(151,38)"/>
<path d="M0 0 C3.96896746 0 5.90360167 1.59778976 8.625 4.25 C12.98739487 8.90638235 15.25128867 12.5610826 16 19 C11.29305672 18.51040918 8.82000927 16.57771053 5.25 13.5625 C4.28578125 12.75941406 3.3215625 11.95632812 2.328125 11.12890625 C0 9 0 9 -1 7 C-1.125 3.9375 -1.125 3.9375 -1 1 C-0.67 0.67 -0.34 0.34 0 0 Z " fill="#FFFFFF" transform="translate(61,141)"/>
<path d="M0 0 C2.83338226 0.33877397 3.80142531 0.7574552 5.640625 3.00390625 C6.17171875 3.84824219 6.7028125 4.69257812 7.25 5.5625 C10.21936548 10.07129791 13.44092406 13.56596962 17.49609375 17.11328125 C19.41974522 19.52658946 19.29513162 20.99172857 19 24 C12.47287886 22.0220845 8.39632481 18.39525503 4.99609375 12.5625 C0 2.93836719 0 2.93836719 0 0 Z " fill="#FFFFFF" transform="translate(120,111)"/>
<path d="M0 0 C2.0078125 0.23046875 2.0078125 0.23046875 5.0078125 2.23046875 C5.0078125 2.89046875 5.0078125 3.55046875 5.0078125 4.23046875 C1.7078125 4.56046875 -1.5921875 4.89046875 -4.9921875 5.23046875 C-5.6521875 3.91046875 -6.3121875 2.59046875 -6.9921875 1.23046875 C-5.11574989 -0.64596886 -2.49413049 0.05061888 0 0 Z " fill="#FFFFFF" transform="translate(155.9921875,65.76953125)"/>
<path d="M0 0 C1.32 0 2.64 0 4 0 C4.33 1.98 4.66 3.96 5 6 C3.35 5.67 1.7 5.34 0 5 C-0.33 4.01 -0.66 3.02 -1 2 C-0.67 1.34 -0.34 0.68 0 0 Z " fill="#FFFFFF" transform="translate(173,204)"/>
</svg>
