<svg xmlns="http://www.w3.org/2000/svg" viewBox="0 0 256 256" width="30px" height="30px" fill-rule="nonzero"><g fill="#ffffff" fill-rule="nonzero" stroke="none"><g transform="scale(5.12,5.12)"><path d="M25,2c-12.68299,0 -23,10.31701 -23,23c0,12.68299 10.31701,23 23,23c12.68299,0 23,-10.31701 23,-23c0,-12.68299 -10.31701,-23 -23,-23zM25,4c11.60201,0 21,9.39799 21,21c0,11.60201 -9.39799,21 -21,21c-11.60201,0 -21,-9.39799 -21,-21c0,-11.60201 9.39799,-21 21,-21zM29,11v11.73828c-0.74263,1.39476 -2.20235,2.26172 -3.92578,2.26172c-2.42201,0 -4.38281,-1.96079 -4.38281,-4.38281c0,-2.42201 1.96079,-4.38281 4.38281,-4.38281c0.75031,0 1.45577,0.20144 2.06641,0.54688v-3.00781c-0.66749,-0.11877 -1.35727,-0.1875 -2.06641,-0.1875c-4.87775,0 -8.83203,3.95429 -8.83203,8.83203c0,4.87775 3.95429,8.83203 8.83203,8.83203c4.87775,0 8.83203,-3.95429 8.83203,-8.83203v-6.31641c1.79527,1.25707 3.9576,2.00391 6.28516,2.00391v-4.30078c-2.71953,-0.29508 -5.06341,-1.96808 -6.28516,-4.28125z"></path></g></g></svg>