<svg xmlns="http://www.w3.org/2000/svg" viewBox="0 0 256 256" width="30px" height="30px" fill-rule="nonzero"><g fill="#ffffff" fill-rule="nonzero" stroke="none"><g transform="scale(5.12,5.12)"><path d="M25,2c-12.68299,0 -23,10.31701 -23,23c0,12.68299 10.31701,23 23,23c12.68299,0 23,-10.31701 23,-23c0,-12.68299 -10.31701,-23 -23,-23zM25,4c11.60201,0 21,9.39799 21,21c0,11.60201 -9.39799,21 -21,21c-11.60201,0 -21,-9.39799 -21,-21c0,-11.60201 9.39799,-21 21,-21zM34.08594,14.03906c-2.23587,0.99194 -4.63391,1.66141 -7.15234,1.96289c2.57136,-1.54129 4.54385,-3.98224 5.47266,-6.89258c-2.40598,1.42686 -5.07348,2.46391 -7.91016,3.02344c-2.27251,-2.42046 -5.51091,-3.93359 -9.09375,-3.93359c-6.88097,0 -12.46289,5.58192 -12.46289,12.46289c0,0.97661 0.1104,1.92767 0.32227,2.83984c-10.35924,-0.51962 -19.54321,-5.48107 -25.68555,-13.02539c-1.07342,1.84199 -1.68945,3.98361 -1.68945,6.26953c0,4.32336 2.19967,8.13634 5.54297,10.37305c-2.04279,-0.06468 -3.96513,-0.62558 -5.64453,-1.55859c-0.00119,0.05209 -0.00195,0.10444 -0.00195,0.15625c0,6.03854 4.29785,11.07629 10.00391,12.22266c-1.04636,0.28489 -2.14858,0.4375 -3.28516,0.4375c-0.80346,0 -1.58472,-0.07835 -2.34766,-0.22266c1.58832,4.95396 6.19435,8.55933 11.65234,8.66211c-4.26688,3.34331 -9.64391,5.33594 -15.48828,5.33594c-1.00661,0 -1.99962,-0.05898 -2.97461,-0.17383c5.51614,3.53592 12.06739,5.59961 19.10742,5.59961c22.92899,0 35.46094,-18.98633 35.46094,-35.46094c0,-0.54035 -0.01215,-1.07809 -0.03516,-1.61133c2.43526,-1.75741 4.54738,-3.95348 6.21875,-6.45117z"></path></g></g></svg>