<?xml version="1.0" encoding="utf-8"?>
<!-- Generator: Adobe Illustrator 16.0.0, SVG Export Plug-In . SVG Version: 6.00 Build 0)  -->
<!DOCTYPE svg PUBLIC "-//W3C//DTD SVG 1.1//EN" "http://www.w3.org/Graphics/SVG/1.1/DTD/svg11.dtd">
<svg version="1.1" id="Layer_1" xmlns="http://www.w3.org/2000/svg" xmlns:xlink="http://www.w3.org/1999/xlink" x="0px" y="0px"
	 width="292px" height="305px" viewBox="0 0 292 305" enable-background="new 0 0 292 305" xml:space="preserve">
<g id="XMLID_1_">
	<g>
		<path fill="#1AB209" d="M253.5,169.64c0.91,12.92,0.59,26.92-7,38c-0.33,0-0.66,0-1,0c0.02-0.609,0.04-1.229,0.06-1.859
			c0.61-20.511-0.699-38.07-15.35-53.72c-16.91-15.12-46.39-22.72-68.71-22.42c0.65,0.17,1.3,0.34,1.96,0.52
			c23.7,6.31,44.96,14.51,57.98,36.8c8.979,16.6,10.84,34.97,5.899,53.21c-2.609,8.64-7.01,17.38-13.84,23.47
			c-0.99,0.33-1.98,0.66-3,1c-0.91-2.479-1.18-3.58-0.11-6.04c0.45-0.71,0.9-1.42,1.36-2.149c7.87-13.29,9.32-31.66,5.75-46.62
			c-3.8-11.19-9.26-22.12-18-30.19c-0.69-0.649-1.38-1.3-2.09-1.97c-10.98-9.49-24.54-16.11-38.25-20.61
			c-5.351-1.86-5.351-1.86-7.16-5.12c-0.17-0.76-0.33-1.52-0.5-2.3c1.65-0.66,3.3-1.32,5-2c0-0.66,0-1.32,0-2
			c26.15-4.76,55.12-6.79,77.62,10C244.39,144.26,252.23,156,253.5,169.64z"/>
	</g>
	<g>
	</g>
</g>
<path fill="#FFA500" d="M124.5,167.64c1.438,0.088,2.876,0.195,4.313,0.313c0.801,0.059,1.602,0.116,2.426,0.176
	c2.662,0.602,3.476,1.515,5.262,3.512c1.176,0.464,1.176,0.464,2.375,0.938c3.365,1.361,5.154,2.338,7.625,5.063
	c0.667,3.539,0.463,7.012,0.305,10.598c-0.026,1.054-0.053,2.107-0.08,3.193c-0.092,3.426-0.221,6.848-0.35,10.271
	c-0.072,2.348-0.142,4.694-0.209,7.042c-0.137,4.591-0.288,9.182-0.453,13.772c-0.176,4.91-0.311,9.82-0.416,14.732
	c-0.984,41.766-0.984,41.766-8.797,57.391c-0.66,0-1.32,0-2,0c-2.061-7.641-3.652-15.132-4.5-23
	c-0.121-1.096-0.24-2.191-0.365-3.321c-2.584-25.483-3.521-51.181-4.717-76.761c-0.063-1.32-0.063-1.32-0.127-2.667
	C124.47,181.804,124.391,174.735,124.5,167.64z M135.5,174.64c1,2,1,2,1,2L135.5,174.64z"/>
<path fill="#FFA500" d="M152.387,61.187c7.135,4.906,11.211,11.07,13.113,19.453c0.949-0.021,1.897-0.041,2.875-0.063
	c3.125,0.063,3.125,0.063,5.125,1.063c0,0.66,0,1.32,0,2c-1.258,0.31-2.516,0.619-3.813,0.938c-2.694,0.994-3.883,1.488-5.246,4.055
	c-0.468,1.57-0.906,3.148-1.316,4.734c-1.885,6.855-7.447,11.767-13.363,15.316c-7.793,3.555-17.744,3.212-25.699,0.395
	c-7.528-3.536-11.728-8.771-14.934-16.324C108.5,90.64,108.5,90.64,108.5,86.64c-2.641-0.33-5.279-0.66-8-1c0-1.32,0-2.64,0-4
	c1.547-0.124,1.547-0.124,3.125-0.25c3.029-0.832,3.761-1.558,5.395-4.309c0.963-2.126,1.923-4.253,2.879-6.383
	c2.714-5.183,6.669-8.52,11.805-11.215C132.248,56.906,144.368,57.253,152.387,61.187z M144.5,64.64
	c1.395,3.004,3.078,5.482,5.063,8.125c3.258,4.827,4.23,9.079,3.938,14.875c-0.813,3.063-0.813,3.063-2,5c-0.66,0.33-1.32,0.66-2,1
	c-0.039-1.321-0.039-1.321-0.078-2.668c-0.057-1.162-0.113-2.323-0.172-3.52c-0.047-1.148-0.093-2.297-0.141-3.48
	c-0.707-3.862-1.855-5.578-4.609-8.332c-2.635-0.879-2.635-0.879-5-1c0.422,0.471,0.844,0.941,1.277,1.426
	c0.548,0.623,1.096,1.245,1.66,1.887c0.545,0.615,1.09,1.23,1.652,1.863c3.092,3.999,2.563,8.018,2.41,12.824
	c-0.33,0.66-0.66,1.32-1,2c-2.063,0.625-2.063,0.625-4,1c0.035-0.905,0.035-0.905,0.07-1.828c0.018-0.799,0.036-1.599,0.055-2.422
	c0.023-0.789,0.047-1.578,0.07-2.391c-0.213-2.567-0.908-4.151-2.195-6.359c-1.472,4.415-1.107,8.5,0,13
	c2.125,2.226,2.125,2.226,5,3c0.805,0.33,1.609,0.66,2.438,1c3.266,0,4.852-1.221,7.203-3.414c3.106-3.625,4.225-7.353,4.734-12.023
	c-0.834-7.93-3.292-12.105-9.438-17.215C147.44,65.463,147.44,65.463,144.5,64.64z M118.125,72.702
	c-3.219,5.819-3.271,11.41-2.625,17.938c1.333,3.317,3.482,5.482,6,8c4.058-0.15,6.301-0.408,9.438-3.063
	c0.516-0.639,1.031-1.279,1.563-1.938c-0.742-0.454-1.484-0.908-2.25-1.375c-3.801-3.628-5.076-7.723-6.75-12.625
	c-0.33,0-0.66,0-1,0c-0.513,4.206,0.002,6.381,2.5,9.688c0.464,0.561,0.928,1.122,1.406,1.699c1.094,1.613,1.094,1.613,1.094,4.613
	c-2.313,0.313-2.313,0.313-5,0c-3.088-3.64-3.758-7.307-4-12c0.478-2.449,1.178-4.632,2-7c0.99,0,1.98,0,3,0
	c0.412-1.134,0.825-2.269,1.25-3.438c1.75-3.563,1.75-3.563,3.563-4.469c3.09-0.132,4.457,1.057,6.938,2.844
	c0.799,0.566,1.599,1.132,2.422,1.715c0.604,0.445,1.207,0.89,1.828,1.348c0.33-1.65,0.66-3.3,1-5
	c-2.988-2.988-4.625-3.952-8.875-4.5C125.588,65.481,121.773,67.997,118.125,72.702z M128.5,75.64
	c0.374,5.16,0.374,5.16,3.063,9.438c0.639,0.516,1.279,1.031,1.938,1.563c0.854-3.306,0.854-3.306,1-7c-1.668-2.503-1.668-2.503-4-4
	C129.84,75.64,129.18,75.64,128.5,75.64z M133.5,86.64c0.66,1.65,1.32,3.3,2,5c0.33-0.99,0.66-1.98,1-3
	C135.51,87.979,134.52,87.32,133.5,86.64z M132.5,101.64c-0.66,0.66-1.32,1.32-2,2c1.877,1.876,4.498,1.18,6.992,1.23
	c2.324-0.112,2.324-0.112,5.008-2.23c-1.623-0.222-3.248-0.427-4.875-0.625c-0.904-0.116-1.811-0.232-2.742-0.352
	C133.703,101.651,133.703,101.651,132.5,101.64z"/>
<path fill="#1AB209" d="M151.617,36.62c13.491,1.013,24.509,6.021,33.82,15.957c5.166,6.361,6.621,12.24,6.34,20.398
	c-0.833,8-4.871,13.845-10.277,19.664c-2.938,2.063-2.938,2.063-5,3c-0.33-0.66-0.66-1.32-1-2c0.31-0.66,0.619-1.32,0.938-2
	c2.297-6.484,1.588-13.412-0.848-19.777c-4.871-9.934-12.891-15.337-22.715-19.91c-2.375-1.313-2.375-1.313-2.984-3.102
	c-0.406-2.297-0.748-4.581-1.016-6.898c-0.143-1.182-0.143-1.182-0.289-2.387c-0.028-0.636-0.057-1.271-0.086-1.926
	C149.5,36.64,149.5,36.64,151.617,36.62z"/>
<g id="XMLID_2_">
	<g>
		<path fill="#1AB209" d="M213.5,148.64c8.84,2.21,15.87,8.65,21,16c6.7,11.761,9.45,23.601,7,37c-1.33,4.78-2.78,9.551-5,14
			c-0.66,0-1.32,0-2,0c0.02-0.64,0.04-1.29,0.06-1.949c0.601-21.051-1.189-41.53-15.369-58.36c-1.44-1.44-2.891-2.88-4.36-4.3
			C213.5,149.64,213.5,149.64,213.5,148.64z"/>
		<path fill="#1AB209" d="M207.8,182.62c6.62,15.28,7.431,35.08,2.04,50.92c-5.82,13.42-5.82,13.42-11.34,17.1
			c0.48-4.35,1.09-8.59,2-12.88c1.03-5.02,1.65-10,2-15.12c0.08-1.02,0.08-1.02,0.16-2.069c0.37-8.681-1.15-17.33-4.23-25.391
			c-2.949-7.76-7.359-14.979-12.93-21.17c-13.12-12.149-31.94-18.649-48.3-25c-11.83-4.6-22.87-9.86-33.81-16.29
			c-1.93-1.1-3.89-2.1-5.89-3.08c12.31,11.91,27.41,17.2,43.11,23.18c23.92,9.161,43.59,17.95,55.59,41.69
			c0.18,0.44,0.359,0.88,0.53,1.33c5.14,13.561,5.1,31.851-0.04,45.23c-0.4,0.85-0.79,1.689-1.19,2.569
			c-0.35,0.801-0.7,1.601-1.06,2.42c-3.19,6.431-7.95,11.49-12.94,16.58c-0.62,0.641-1.23,1.28-1.87,1.94
			c-8.07,7.75-19.04,12.81-30.13,14.06c1.44-3.68,3.04-4.87,6.5-6.689c14.36-8.21,24.56-20.66,28.93-36.62
			c3.19-15.16,0.91-29.43-7.25-42.64c-16.25-23.37-45.55-31.271-71.09-40.47c-2.36-0.86-4.73-1.72-7.09-2.58
			c-1.2-0.44-2.4-0.87-3.64-1.32c-1.15-0.43-2.3-0.86-3.49-1.3c-1.02-0.38-2.05-0.76-3.1-1.15c-4.4-1.95-7.55-4.71-10.77-8.23
			c-0.54-0.58-1.08-1.17-1.64-1.77c-8.9-10.67-10.55-23.51-10.61-36.86c-0.02-1.12-0.04-2.25-0.06-3.41
			c-0.07-15.16,4.44-27.58,14.95-38.59c0.78-0.78,1.56-1.56,2.36-2.37c0.67-0.7,1.33-1.4,2.02-2.13
			c10.04-9.83,25.81-17.28,39.98-16.87c-0.06,1.92-0.15,3.83-0.25,5.75c-0.05,1.07-0.09,2.13-0.14,3.23
			c-0.74,3.66-1.7,4.74-4.61,7.02c-1.76,1.04-3.55,2.02-5.38,2.94C104.36,60.32,98.2,67.96,94.5,79.64
			c-2.87,10.16-0.43,19.96,4.56,29c14.12,21.91,42.66,28.54,65.81,37.45C184.5,153.73,198.79,162.92,207.8,182.62z"/>
		<path fill="#1AB209" d="M170.33,191.92c8.28,11.92,11.43,24.24,10.17,38.72c-2.58,12.561-9.52,23.58-20,31
			c-3.97,2.221-7.41,4-12,4c-0.57-9.689-0.57-9.689,3-14c0.74-0.56,1.48-1.109,2.25-1.689c7.74-6.51,12.8-16.44,14.75-26.311
			c1.14-14.399-1.86-25.18-10.78-36.439c-2.16-2.57-2.16-2.57-4.5-4.78c-1.72-1.78-1.72-1.78-1.72-3.78
			C159.73,179.89,165.25,185.6,170.33,191.92z"/>
		<path fill="#1AB209" d="M159.85,199.72c4.95,10.61,5.96,19.54,2.101,30.721c-2.37,5.239-5.42,10.069-9.45,14.199
			c-0.99,0-1.98,0-3,0c-0.03-1.6-0.05-3.21-0.06-4.81c-0.011-0.9-0.03-1.79-0.04-2.71c0.1-2.48,0.1-2.48,1.1-5.48
			c0.12-1.649,0.2-3.31,0.25-4.97c0.03-0.99,0.06-1.97,0.1-2.979c0.061-2.051,0.11-4.101,0.17-6.141
			c0.58-17.01,0.58-17.01,4.48-20.91C158.5,197.64,158.5,197.64,159.85,199.72z"/>
		<path fill="#1AB209" d="M125.5,276.64c1.12,3.75,1.12,3.75,0,6c-11.46-0.87-21.37-2.399-32-7c-1.03-0.42-2.05-0.84-3.11-1.27
			c-12.48-5.601-23.3-15.87-29.27-28.23c-2.78-7.609-3.07-16.75-0.7-24.5c1.18-2.52,2.49-4.72,4.08-7
			c0.41-0.63,0.82-1.26,1.25-1.909c7.83-10.561,23.78-17.23,36.25-11.4c4.39,2.59,6.79,5.6,8.75,10.31c0.7,2.82,0.92,5.11,0.75,8
			c-3.5-1.17-4.04-2.17-6.19-5.06c-2.45-2.92-2.45-2.92-5.76-4.61c-5.18-0.21-9.97,1.53-14.05,4.67c-6.83,8.24-6.92,17.74-6,28
			c1.35,6.24,4.39,10.301,9.71,13.78c10.67,5.68,22.56,4.54,34.29,4.22c0.62,3.37,0.62,3.37,1,7c-2,2-2,2-4.25,2.23
			c-6.3-0.101-12.5-0.47-18.75-1.23C109.31,272.6,116.91,274.96,125.5,276.64z"/>
		<path fill="#1AB209" d="M124.77,237.99c0,0.76,0,1.529,0.01,2.319c-0.04,4.79-0.62,8.811-2.28,13.33
			c-6.4,3.2-17.65,1.53-24.19-0.63c-4.66-1.97-7.09-4.12-9.81-8.37c-2.3-6.899-1.86-14.069,1.25-20.63
			c1.78-3.39,3.13-5.029,6.75-6.37c4.62-0.489,7.36,0.07,11,3c1.9,3.511,2.45,7.07,3,11c4.94-5.76,6.68-10.59,6.49-18.149
			c-0.89-5.21-3.54-8.471-7.49-11.851c-3.87-2.34-7.83-4.25-12-6c0-0.989,0-1.979,0-3c1.75-0.649,3.5-1.29,5.25-1.939
			c0.97-0.36,1.95-0.72,2.95-1.09c4.75-1.65,8.72-2.431,13.8-1.971c6.19,5.971,5.07,19.181,5.24,27.33
			c0.04,3.391,0.04,6.771,0.02,10.15c-0.01,2.61,0,5.22,0.01,7.82C124.77,234.62,124.77,236.31,124.77,237.99z"/>
		<path fill="#1AB209" d="M32.42,136.39c-0.04-0.11-0.09-0.26-0.16-0.48c-0.05-0.15-0.11-0.33-0.18-0.54l0.18,0.54L32.42,136.39z
			 M33.5,137.64c3.71,13.45,11.03,24.23,23.02,31.43c11.47,6.06,24.43,8.14,37.19,5.449c4.47-1.409,8.56-3.55,12.75-5.609
			c4.01-1.67,6.77-1.771,11.04-1.271c1,3,1,3,0.04,5.431c-2.75,3.46-5.77,4.89-9.73,6.76c-0.68,0.34-1.36,0.68-2.07,1.03
			c-14.8,7.199-30.05,5.81-45.24,0.779c-16.03-6.26-27.81-17.859-34.97-33.459c-6.97-17.19-6.28-38.48,0.8-55.54
			c4.09-9.45,9.15-17.41,16.17-25c0.65-0.74,1.3-1.49,1.97-2.25c13.89-14.98,36.96-30.24,58.03-29.75c-2.5,3.75-5.43,4.85-9.38,6.69
			c-11.07,5.35-20.7,12.1-30.06,19.99c-0.52,0.43-1.04,0.87-1.56,1.32c-0.92,0.77-1.84,1.54-2.78,2.34
			C43.94,78.8,33.19,94.9,30.5,114.64c-0.2,3.69-0.2,7.32,0,11c0.29-0.82,0.58-1.65,0.88-2.49c2.71-7.37,5.81-13.95,10.12-20.51
			c3.85,0.54,5.32,2.12,7.75,5.06c0.92,1.1,0.92,1.1,1.86,2.22c0.46,0.57,0.92,1.14,1.39,1.72c-0.36-0.55-0.72-1.09-1.09-1.65
			c-4.18-6.79-5.03-11.39-3.28-19.13c2.94-10.03,8.5-19.35,15.37-27.22c0.17-0.08,0.33-0.16,0.49-0.23c2.27-1.08,2.4-1.12,4.51-1.77
			c-0.54,4.46-1.67,7.6-3.88,11.5c-7.39,14.53-8.96,33.86-4.56,49.62c7.67,20.51,22.11,32.811,41.44,41.88
			c-2.34,3.511-3.84,3.801-7.86,4.641c-6.86,1.14-11.44,0.18-17.14-3.641c-14.63-11.229-23.82-33.08-30-50c-0.66,0-1.32,0-2,0
			c-3.81,7.18-7.01,14.1-9,22C34.84,137.64,34.18,137.64,33.5,137.64z"/>
		<path fill="#FFA500" d="M32.26,135.91c0.07,0.22,0.12,0.37,0.16,0.48L32.26,135.91z"/>
		<path fill="#FFA500" d="M32.26,135.91l-0.18-0.54C32.15,135.58,32.21,135.76,32.26,135.91z"/>
	</g>
	<g>
	</g>
</g>
<path fill="#1AB209" d="M45.5,141.64c5.52,1.735,8.414,5.281,12.25,9.438c3.047,2.839,6.258,4.998,9.762,7.23
	c1.988,1.332,1.988,1.332,3.988,3.332c0,1.32,0,2.641,0,4c-12.732,0.752-12.732,0.752-17.473-2.551
	c-5.912-5.609-8.995-12.32-9.527-20.449C44.83,142.31,45.16,141.979,45.5,141.64z"/>
<path fill="#FFA500" d="M124.5,112.64c6,1,6,1,8.063,2.688c0.639,0.433,1.279,0.866,1.938,1.313c2.477-0.639,2.477-0.639,5-2
	c1.994-0.682,3.994-1.351,6-2c0.027,2.458,0.047,4.917,0.063,7.375c0.008,0.699,0.017,1.397,0.025,2.117
	c0.025,5.281,0.025,5.281-1.088,7.508c-6.959,0.633-12.471-1.652-19-4C125.17,121.35,124.84,117.06,124.5,112.64z"/>
<path fill="#FFA500" d="M140.5,1.64c3.236,1.743,3.824,2.472,5,6c0.371,5.004,0.099,7.983-3,12c-3.737,2.492-5.573,2.458-10,2
	c-2.875-1.438-2.875-1.438-5-4c-1.307-4.321-1.527-7.761,0.25-11.938C131.43,1.365,135.09,0.92,140.5,1.64z M132.5,10.64
	c0.318,2.108,0.318,2.108,1,4c1.98,0.495,1.98,0.495,4,1c1.609-2.376,1.609-2.376,3-5c-0.33-0.66-0.66-1.32-1-2
	C135.545,8.292,135.545,8.292,132.5,10.64z"/>
<path fill="#FFA500" d="M131.5,22.64c1.532,0.252,3.053,0.576,4.563,0.938c0.826,0.195,1.652,0.389,2.504,0.59
	c0.957,0.234,0.957,0.234,1.934,0.473c0,0.99,0,1.98,0,3c-0.99,0.495-0.99,0.495-2,1c0.99,0.66,1.98,1.32,3,2c-1,3-1,3-3,4
	c0.99,0.99,1.98,1.98,3,3c-1.98,0.99-1.98,0.99-4,2c1.32,1.32,2.641,2.64,4,4c-0.66,0.66-1.32,1.32-2,2c0.66,0.33,1.32,0.66,2,1
	c0,0.66,0,1.32,0,2c-3.63,0-7.26,0-11,0c-1.125-7.75-1.125-7.75,0-10c0.046-2.529,0.047-5.035,0-7.563
	c-0.046-2.486-0.047-4.95,0-7.438C130.83,23.31,131.16,22.979,131.5,22.64z"/>
<path fill="#1AB209" d="M41.5,125.64c3.969,0,5.904,1.598,8.625,4.25c4.362,4.656,6.627,8.311,7.375,14.75
	c-4.707-0.49-7.18-2.422-10.75-5.438c-0.965-0.803-1.928-1.606-2.922-2.434C41.5,134.64,41.5,134.64,40.5,132.64
	c-0.125-3.063-0.125-3.063,0-6C40.83,126.31,41.16,125.979,41.5,125.64z"/>
<path fill="#1AB209" d="M100.5,95.64c2.834,0.339,3.801,0.757,5.641,3.004c0.531,0.844,1.063,1.688,1.609,2.559
	c2.969,4.509,6.191,8.003,10.246,11.551c1.924,2.413,1.799,3.878,1.504,6.887c-6.527-1.978-10.604-5.604-14.004-11.438
	C100.5,98.578,100.5,98.578,100.5,95.64z"/>
<path fill="#FFA500" d="M136.492,50.409c2.008,0.23,2.008,0.23,5.008,2.23c0,0.66,0,1.32,0,2c-3.3,0.33-6.6,0.66-10,1
	c-0.66-1.32-1.32-2.64-2-4C131.377,49.763,133.998,50.46,136.492,50.409z"/>
<path fill="#1AB209" d="M153.5,188.64c1.32,0,2.641,0,4,0c0.33,1.98,0.66,3.96,1,6c-1.65-0.33-3.3-0.66-5-1
	c-0.33-0.99-0.66-1.98-1-3C152.83,189.979,153.16,189.319,153.5,188.64z"/>
</svg>
