<svg xmlns="http://www.w3.org/2000/svg" viewBox="0 0 50 50" width="30px" height="30px">
  <circle cx="25" cy="25" r="23" fill="#ffffff"/>
  <path d="M38 15.5c-1.2.5-2.4.9-3.7 1 1.3-.8 2.3-2 2.8-3.5-1.2.7-2.6 1.2-4 1.5-1.2-1.3-2.8-2-4.6-2-3.5 0-6.3 2.8-6.3 6.3 0 .5.1 1 .2 1.5-5.2-.3-9.8-2.8-12.9-6.6-.5.9-.8 2-.8 3.1 0 2.2 1.1 4.1 2.8 5.2-1 0-2-.3-2.8-.7v.1c0 3 2.2 5.6 5.1 6.2-.5.1-1.1.2-1.6.2-.4 0-.8 0-1.2-.1.8 2.5 3.1 4.3 5.9 4.4-2.2 1.7-4.9 2.7-7.8 2.7-.5 0-1 0-1.5-.1 2.8 1.8 6.1 2.8 9.7 2.8 11.6 0 18-9.6 18-18v-.8c1.2-.9 2.3-2 3.1-3.3z" fill="none" stroke="#000" stroke-width="0.5"/>
</svg>