<svg xmlns="http://www.w3.org/2000/svg" xmlns:xlink="http://www.w3.org/1999/xlink" viewBox="0,0,256,256" width="50px" height="50px" fill-rule="nonzero"><g fill="#ffffff" fill-rule="nonzero" stroke="none" stroke-width="1" stroke-linecap="butt" stroke-linejoin="miter" stroke-miterlimit="10" stroke-dasharray="" stroke-dashoffset="0" font-family="none" font-weight="none" font-size="none" text-anchor="none" style="mix-blend-mode: normal"><g transform="scale(5.12,5.12)"><path d="M25,3c-12.15,0 -22,9.85 -22,22c0,12.15 9.85,22 22,22c12.15,0 22,-9.85 22,-22c0,-12.15 -9.85,-22 -22,-22zM25,11c7.72,0 14,6.28 14,14c0,7.72 -6.28,14 -14,14c-7.72,0 -14,-6.28 -14,-14c0,-7.72 6.28,-14 14,-14zM25,13c-6.617,0 -12,5.383 -12,12c0,6.617 5.383,12 12,12c6.617,0 12,-5.383 12,-12c0,-6.617 -5.383,-12 -12,-12zM22.01953,18.50195c0.1745,0.00325 0.34745,0.05053 0.50195,0.14453l9,5.5c0.296,0.181 0.47852,0.50452 0.47852,0.85352c0,0.349 -0.18152,0.67152 -0.47852,0.85352l-9,5.5c-0.16,0.097 -0.34048,0.14648 -0.52148,0.14648c-0.168,0 -0.33628,-0.04391 -0.48828,-0.12891c-0.316,-0.177 -0.51172,-0.51009 -0.51172,-0.87109v-11c0,-0.361 0.19572,-0.69409 0.51172,-0.87109c0.1585,-0.088 0.33331,-0.1302 0.50781,-0.12695z"></path></g></g></svg>