<?xml version="1.0" encoding="UTF-8"?>
<svg version="1.1" xmlns="http://www.w3.org/2000/svg" width="318" height="41">
<path d="M0 0 C1.38294718 0.01329757 2.76582404 0.03715018 4.1484375 0.0703125 C4.85484375 0.07933594 5.56125 0.08835937 6.2890625 0.09765625 C8.03399848 0.12123647 9.77876045 0.15710789 11.5234375 0.1953125 C10.97620067 3.56993965 10.4685375 5.2776625 8.5234375 8.1953125 C8.83184349 10.34806198 8.83184349 10.34806198 9.5234375 12.1953125 C10.1834375 12.1953125 10.8434375 12.1953125 11.5234375 12.1953125 C13.25 14.09375 13.25 14.09375 15.1484375 16.5703125 C15.78007813 17.38242187 16.41171875 18.19453125 17.0625 19.03125 C18.5234375 21.1953125 18.5234375 21.1953125 18.5234375 23.1953125 C20.0084375 23.6903125 20.0084375 23.6903125 21.5234375 24.1953125 C21.5234375 24.8553125 21.5234375 25.5153125 21.5234375 26.1953125 C25.4834375 26.1953125 29.4434375 26.1953125 33.5234375 26.1953125 C33.0284375 22.2353125 33.0284375 22.2353125 32.5234375 18.1953125 C31.8634375 18.1953125 31.2034375 18.1953125 30.5234375 18.1953125 C30.5234375 19.1853125 30.5234375 20.1753125 30.5234375 21.1953125 C28.8734375 21.1953125 27.2234375 21.1953125 25.5234375 21.1953125 C23.6646859 18.07118 23.32191903 16.10213716 23.7734375 12.5078125 C23.86109375 11.72019531 23.94875 10.93257812 24.0390625 10.12109375 C24.19890625 9.48558594 24.35875 8.85007812 24.5234375 8.1953125 C29.01499842 5.94953204 35.18201658 7.00946818 40.18139648 7.01000977 C42.44859616 7.0078244 44.71530839 6.98966757 46.98242188 6.97070312 C48.42187333 6.96776888 49.86132711 6.96578429 51.30078125 6.96484375 C52.61296631 6.96073486 53.92515137 6.95662598 55.27709961 6.95239258 C58.5234375 7.1953125 58.5234375 7.1953125 61.5234375 9.1953125 C62.1834375 8.5353125 62.8434375 7.8753125 63.5234375 7.1953125 C65.66213989 6.95480347 65.66213989 6.95480347 68.34033203 6.96826172 C69.34121857 6.96841278 70.3421051 6.96856384 71.37332153 6.96871948 C72.99837112 6.98420334 72.99837112 6.98420334 74.65625 7 C76.31670853 7.00424484 76.31670853 7.00424484 78.01071167 7.00857544 C81.55672887 7.01979731 85.10249625 7.04490559 88.6484375 7.0703125 C91.04817344 7.0803397 93.44791333 7.089466 95.84765625 7.09765625 C101.73966901 7.11974318 107.63153541 7.15324043 113.5234375 7.1953125 C113.8534375 8.8453125 114.1834375 10.4953125 114.5234375 12.1953125 C112.5434375 12.5253125 110.5634375 12.8553125 108.5234375 13.1953125 C108.5234375 17.1553125 108.5234375 21.1153125 108.5234375 25.1953125 C112.1534375 25.5253125 115.7834375 25.8553125 119.5234375 26.1953125 C121.01238343 23.21940848 121.01238343 23.21940848 122.3984375 20.1953125 C123.7646711 17.76645277 125.49495675 16.0885612 127.5234375 14.1953125 C125.2134375 13.2053125 122.9034375 12.2153125 120.5234375 11.1953125 C120.8534375 10.2053125 121.1834375 9.2153125 121.5234375 8.1953125 C125.02785887 6.44310182 128.97428181 6.88347713 132.8359375 6.8203125 C133.69123047 6.78292969 134.54652344 6.74554687 135.42773438 6.70703125 C139.99502069 6.64335104 141.90068785 6.7143461 145.62890625 9.59375 C147.5234375 12.1953125 147.5234375 12.1953125 147.5234375 14.1953125 C148.5134375 14.5253125 149.5034375 14.8553125 150.5234375 15.1953125 C150.5234375 16.1853125 150.5234375 17.1753125 150.5234375 18.1953125 C151.1834375 18.1953125 151.8434375 18.1953125 152.5234375 18.1953125 C153.88147426 19.91190682 155.02174008 21.72716132 156.20703125 23.56640625 C157.52357036 25.49484966 157.52357036 25.49484966 160.5234375 26.1953125 C160.8534375 25.5353125 161.1834375 24.8753125 161.5234375 24.1953125 C160.8634375 24.1953125 160.2034375 24.1953125 159.5234375 24.1953125 C159.5234375 21.2253125 159.5234375 18.2553125 159.5234375 15.1953125 C160.1834375 15.1953125 160.8434375 15.1953125 161.5234375 15.1953125 C161.5234375 14.2053125 161.5234375 13.2153125 161.5234375 12.1953125 C162.5134375 12.1953125 163.5034375 12.1953125 164.5234375 12.1953125 C164.8534375 11.2053125 165.1834375 10.2153125 165.5234375 9.1953125 C174.58806742 4.99625599 184.89381061 5.99853494 194.5234375 7.1953125 C195.5234375 8.1953125 195.5234375 8.1953125 195.62109375 10.69921875 C195.60369141 12.21322266 195.60369141 12.21322266 195.5859375 13.7578125 C195.57691406 14.76972656 195.56789062 15.78164063 195.55859375 16.82421875 C195.54119141 17.99791016 195.54119141 17.99791016 195.5234375 19.1953125 C189.59863784 18.84679487 187.49401293 17.48782647 183.5234375 13.1953125 C181.5434375 12.7003125 181.5434375 12.7003125 179.5234375 12.1953125 C179.5234375 17.1453125 179.5234375 22.0953125 179.5234375 27.1953125 C186.11831044 26.03634704 186.11831044 26.03634704 192.4609375 24.0078125 C194.5234375 23.1953125 194.5234375 23.1953125 197.5234375 24.1953125 C197.8534375 24.8553125 198.1834375 25.5153125 198.5234375 26.1953125 C200.1734375 26.1953125 201.8234375 26.1953125 203.5234375 26.1953125 C203.5234375 21.9053125 203.5234375 17.6153125 203.5234375 13.1953125 C201.5434375 12.8653125 199.5634375 12.5353125 197.5234375 12.1953125 C197.8534375 10.5453125 198.1834375 8.8953125 198.5234375 7.1953125 C215.0234375 7.1953125 231.5234375 7.1953125 248.5234375 7.1953125 C249.1834375 8.5153125 249.8434375 9.8353125 250.5234375 11.1953125 C248.2134375 11.8553125 245.9034375 12.5153125 243.5234375 13.1953125 C243.5234375 17.4853125 243.5234375 21.7753125 243.5234375 26.1953125 C245.1734375 26.1953125 246.8234375 26.1953125 248.5234375 26.1953125 C249.5859375 28.0703125 249.5859375 28.0703125 250.5234375 30.1953125 C250.1934375 30.8553125 249.8634375 31.5153125 249.5234375 32.1953125 C232.3634375 32.1953125 215.2034375 32.1953125 197.5234375 32.1953125 C197.1934375 31.2053125 196.8634375 30.2153125 196.5234375 29.1953125 C195.0075 30.1853125 195.0075 30.1853125 193.4609375 31.1953125 C186.42120258 34.696424 177.7740033 34.40232751 170.33203125 32.2890625 C167.99177744 31.35695572 165.75083153 30.36928017 163.5234375 29.1953125 C163.1934375 30.1853125 162.8634375 31.1753125 162.5234375 32.1953125 C153.6134375 32.1953125 144.7034375 32.1953125 135.5234375 32.1953125 C135.1934375 30.5453125 134.8634375 28.8953125 134.5234375 27.1953125 C133.5334375 27.1953125 132.5434375 27.1953125 131.5234375 27.1953125 C131.7090625 27.8346875 131.8946875 28.4740625 132.0859375 29.1328125 C132.3025 30.15375 132.3025 30.15375 132.5234375 31.1953125 C131.5234375 32.1953125 131.5234375 32.1953125 128.78367615 32.31556702 C127.56011917 32.31334641 126.33656219 32.31112579 125.07592773 32.30883789 C124.06621414 32.30905693 124.06621414 32.30905693 123.03610229 32.3092804 C120.80137966 32.30858128 118.5667394 32.30078902 116.33203125 32.29296875 C114.78646388 32.29110456 113.24089593 32.28968066 111.69532776 32.28868103 C107.61986673 32.2848559 103.54444113 32.27502567 99.46899414 32.26397705 C95.31331868 32.25376282 91.15763751 32.24918339 87.00195312 32.24414062 C78.84243163 32.23340339 70.68293897 32.21632704 62.5234375 32.1953125 C61.5334375 30.2153125 61.5334375 30.2153125 60.5234375 28.1953125 C63.5234375 26.1953125 63.5234375 26.1953125 68.5234375 26.1953125 C68.5234375 21.9053125 68.5234375 17.6153125 68.5234375 13.1953125 C66.2134375 12.8653125 63.9034375 12.5353125 61.5234375 12.1953125 C61.1934375 14.8353125 60.8634375 17.4753125 60.5234375 20.1953125 C58.8734375 20.5253125 57.2234375 20.8553125 55.5234375 21.1953125 C55.0284375 19.7103125 55.0284375 19.7103125 54.5234375 18.1953125 C53.8634375 18.1953125 53.2034375 18.1953125 52.5234375 18.1953125 C52.1934375 20.8353125 51.8634375 23.4753125 51.5234375 26.1953125 C52.73 26.164375 52.73 26.164375 53.9609375 26.1328125 C56.5234375 26.1953125 56.5234375 26.1953125 57.5234375 27.1953125 C57.5234375 28.8453125 57.5234375 30.4953125 57.5234375 32.1953125 C38.3834375 32.1953125 19.2434375 32.1953125 -0.4765625 32.1953125 C-0.9715625 30.2153125 -0.9715625 30.2153125 -1.4765625 28.1953125 C-0.9815625 27.7003125 -0.9815625 27.7003125 -0.4765625 27.1953125 C-1.4665625 27.1953125 -2.4565625 27.1953125 -3.4765625 27.1953125 C-3.9715625 29.6703125 -3.9715625 29.6703125 -4.4765625 32.1953125 C-11.14322917 32.1953125 -17.80989583 32.1953125 -24.4765625 32.1953125 C-25.9615625 32.6903125 -25.9615625 32.6903125 -27.4765625 33.1953125 C-45.45207815 34.42734222 -45.45207815 34.42734222 -52.4765625 29.1953125 C-55.30141627 26.19028582 -55.84990121 24.22149059 -55.7265625 20.1328125 C-55.71109375 19.27558594 -55.695625 18.41835938 -55.6796875 17.53515625 C-55.41608592 14.49866877 -55.03284969 12.70148373 -52.7421875 10.6171875 C-43.66856213 4.92270537 -32.63963816 5.88551277 -22.4765625 7.1953125 C-21.8165625 7.5253125 -21.1565625 7.8553125 -20.4765625 8.1953125 C-20.4765625 11.8253125 -20.4765625 15.4553125 -20.4765625 19.1953125 C-22.4565625 19.1953125 -24.4365625 19.1953125 -26.4765625 19.1953125 C-26.8065625 18.2053125 -27.1365625 17.2153125 -27.4765625 16.1953125 C-30.2967563 14.48305198 -33.40612121 13.389373 -36.4765625 12.1953125 C-38.19112602 17.33900306 -37.76716071 22.03291964 -36.4765625 27.1953125 C-33.1765625 26.8653125 -29.8765625 26.5353125 -26.4765625 26.1953125 C-26.4765625 25.5353125 -26.4765625 24.8753125 -26.4765625 24.1953125 C-23.14322917 24.1953125 -19.80989583 24.1953125 -16.4765625 24.1953125 C-15.8165625 23.2053125 -15.1565625 22.2153125 -14.4765625 21.1953125 C-13.8165625 21.1953125 -13.1565625 21.1953125 -12.4765625 21.1953125 C-12.1465625 19.8753125 -11.8165625 18.5553125 -11.4765625 17.1953125 C-10.8165625 17.1953125 -10.1565625 17.1953125 -9.4765625 17.1953125 C-9.58962947 15.23636889 -9.58962947 15.23636889 -10.4765625 13.1953125 C-12.96690636 11.89870816 -12.96690636 11.89870816 -15.4765625 11.1953125 C-15.1465625 10.2053125 -14.8165625 9.2153125 -14.4765625 8.1953125 C-13.8165625 8.1953125 -13.1565625 8.1953125 -12.4765625 8.1953125 C-12.4765625 6.5453125 -12.4765625 4.8953125 -12.4765625 3.1953125 C-10.8059375 3.0096875 -10.8059375 3.0096875 -9.1015625 2.8203125 C-4.89592372 2.09520237 -4.23141011 0.23771967 0 0 Z M86.5234375 13.1953125 C86.5234375 14.5153125 86.5234375 15.8353125 86.5234375 17.1953125 C87.8434375 17.1953125 89.1634375 17.1953125 90.5234375 17.1953125 C90.1934375 15.5453125 89.8634375 13.8953125 89.5234375 12.1953125 C88.2998307 12.1207769 88.2998307 12.1207769 86.5234375 13.1953125 Z M221.5234375 13.1953125 C221.5234375 14.5153125 221.5234375 15.8353125 221.5234375 17.1953125 C222.8434375 17.1953125 224.1634375 17.1953125 225.5234375 17.1953125 C225.5234375 15.8753125 225.5234375 14.5553125 225.5234375 13.1953125 C224.2034375 13.1953125 222.8834375 13.1953125 221.5234375 13.1953125 Z M86.5234375 21.1953125 C86.5234375 22.8453125 86.5234375 24.4953125 86.5234375 26.1953125 C87.8434375 26.1953125 89.1634375 26.1953125 90.5234375 26.1953125 C90.5234375 24.5453125 90.5234375 22.8953125 90.5234375 21.1953125 C89.2034375 21.1953125 87.8834375 21.1953125 86.5234375 21.1953125 Z M221.5234375 21.1953125 C221.5234375 22.8453125 221.5234375 24.4953125 221.5234375 26.1953125 C222.8434375 26.1953125 224.1634375 26.1953125 225.5234375 26.1953125 C225.5234375 24.5453125 225.5234375 22.8953125 225.5234375 21.1953125 C224.2034375 21.1953125 222.8834375 21.1953125 221.5234375 21.1953125 Z " fill="#131313" transform="translate(55.4765625,6.8046875)"/>
<path d="M0 0 C1.93166016 0.01740234 1.93166016 0.01740234 3.90234375 0.03515625 C5.19269531 0.04417969 6.48304687 0.05320312 7.8125 0.0625 C8.81152344 0.07410156 9.81054688 0.08570313 10.83984375 0.09765625 C9.4804729 2.95824535 8.19463906 4.95693324 5.83984375 7.09765625 C6.90525391 8.11085938 6.90525391 8.11085938 7.9921875 9.14453125 C11.69763953 12.84606769 14.72417549 17.06700943 17.82226562 21.27734375 C20.31831226 24.5588596 21.74688654 26.3988985 25.83984375 27.09765625 C25.83984375 27.75765625 25.83984375 28.41765625 25.83984375 29.09765625 C17.91984375 29.09765625 9.99984375 29.09765625 1.83984375 29.09765625 C1.83984375 28.43765625 1.83984375 27.77765625 1.83984375 27.09765625 C2.82984375 27.09765625 3.81984375 27.09765625 4.83984375 27.09765625 C4.34484375 25.11765625 4.34484375 25.11765625 3.83984375 23.09765625 C-0.45015625 23.09765625 -4.74015625 23.09765625 -9.16015625 23.09765625 C-9.16015625 24.41765625 -9.16015625 25.73765625 -9.16015625 27.09765625 C-7.51015625 27.09765625 -5.86015625 27.09765625 -4.16015625 27.09765625 C-4.16015625 27.75765625 -4.16015625 28.41765625 -4.16015625 29.09765625 C-5.32933594 29.06285156 -6.49851563 29.02804688 -7.703125 28.9921875 C-9.25128766 28.96403909 -10.79946593 28.93674006 -12.34765625 28.91015625 C-13.11658203 28.88501953 -13.88550781 28.85988281 -14.67773438 28.83398438 C-19.58699951 28.77077495 -21.94344858 29.47152049 -26.16015625 32.09765625 C-28.84926891 32.4152004 -31.22992307 32.57422395 -33.91015625 32.53515625 C-34.61809326 32.5290332 -35.32603027 32.52291016 -36.05541992 32.51660156 C-41.66929197 32.34946464 -46.59589548 31.49724358 -51.16015625 28.09765625 C-53.98501002 25.09262957 -54.53349496 23.12383434 -54.41015625 19.03515625 C-54.3946875 18.17792969 -54.37921875 17.32070313 -54.36328125 16.4375 C-54.09967967 13.40101252 -53.71644344 11.60382748 -51.42578125 9.51953125 C-42.35215588 3.82504912 -31.32323191 4.78785652 -21.16015625 6.09765625 C-20.50015625 6.42765625 -19.84015625 6.75765625 -19.16015625 7.09765625 C-19.16015625 10.72765625 -19.16015625 14.35765625 -19.16015625 18.09765625 C-21.14015625 18.09765625 -23.12015625 18.09765625 -25.16015625 18.09765625 C-25.49015625 17.10765625 -25.82015625 16.11765625 -26.16015625 15.09765625 C-28.98035005 13.38539573 -32.08971496 12.29171675 -35.16015625 11.09765625 C-36.87471977 16.24134681 -36.45075446 20.93526339 -35.16015625 26.09765625 C-31.86015625 25.76765625 -28.56015625 25.43765625 -25.16015625 25.09765625 C-25.16015625 24.43765625 -25.16015625 23.77765625 -25.16015625 23.09765625 C-21.82682292 23.09765625 -18.49348958 23.09765625 -15.16015625 23.09765625 C-14.50015625 22.10765625 -13.84015625 21.11765625 -13.16015625 20.09765625 C-12.50015625 20.09765625 -11.84015625 20.09765625 -11.16015625 20.09765625 C-10.83015625 18.77765625 -10.50015625 17.45765625 -10.16015625 16.09765625 C-9.50015625 16.09765625 -8.84015625 16.09765625 -8.16015625 16.09765625 C-8.27322322 14.13871264 -8.27322322 14.13871264 -9.16015625 12.09765625 C-11.65050011 10.80105191 -11.65050011 10.80105191 -14.16015625 10.09765625 C-13.83015625 9.10765625 -13.50015625 8.11765625 -13.16015625 7.09765625 C-12.50015625 7.09765625 -11.84015625 7.09765625 -11.16015625 7.09765625 C-11.16015625 5.44765625 -11.16015625 3.79765625 -11.16015625 2.09765625 C-10.02578125 1.95328125 -8.89140625 1.80890625 -7.72265625 1.66015625 C-4.02637385 1.07653271 -3.6179549 0.1118033 0 0 Z " fill="#0F0F0F" transform="translate(54.16015625,7.90234375)"/>
<path d="M0 0 C4.95 0 9.9 0 15 0 C14 5 14 5 12 8 C12.30840599 10.15274948 12.30840599 10.15274948 13 12 C13.66 12 14.32 12 15 12 C16.7265625 13.8984375 16.7265625 13.8984375 18.625 16.375 C19.25664063 17.18710937 19.88828125 17.99921875 20.5390625 18.8359375 C22 21 22 21 22 23 C22.99 23.33 23.98 23.66 25 24 C25 24.66 25 25.32 25 26 C28.96 26 32.92 26 37 26 C36.505 22.04 36.505 22.04 36 18 C35.34 18 34.68 18 34 18 C34 18.99 34 19.98 34 21 C32.35 21 30.7 21 29 21 C27.1412484 17.8758675 26.79848153 15.90682466 27.25 12.3125 C27.33765625 11.52488281 27.4253125 10.73726562 27.515625 9.92578125 C27.67546875 9.29027344 27.8353125 8.65476562 28 8 C32.4788101 5.76059495 38.61859443 6.81415583 43.60302734 6.81469727 C45.85924259 6.81251524 48.11496534 6.79436833 50.37109375 6.77539062 C51.80729 6.77245569 53.24348856 6.77047156 54.6796875 6.76953125 C55.98663574 6.76542236 57.29358398 6.76131348 58.64013672 6.75708008 C62 7 62 7 66 9 C65.34 12.63 64.68 16.26 64 20 C62.35 20.33 60.7 20.66 59 21 C58.505 19.515 58.505 19.515 58 18 C57.34 18 56.68 18 56 18 C55.67 20.64 55.34 23.28 55 26 C56.2065625 25.9690625 56.2065625 25.9690625 57.4375 25.9375 C60 26 60 26 61 27 C61 28.65 61 30.3 61 32 C41.86 32 22.72 32 3 32 C2.67 30.68 2.34 29.36 2 28 C2.33 27.67 2.66 27.34 3 27 C2.01 27 1.02 27 0 27 C-0.33 28.65 -0.66 30.3 -1 32 C-6.61 32 -12.22 32 -18 32 C-18 31.01 -18 30.02 -18 29 C-12.72 29.33 -7.44 29.66 -2 30 C-2 29.34 -2 28.68 -2 28 C-3.65 28 -5.3 28 -7 28 C-7 26.68 -7 25.36 -7 24 C-2.71 24 1.58 24 6 24 C6.33 25.32 6.66 26.64 7 28 C6.01 28 5.02 28 4 28 C4 28.66 4 29.32 4 30 C11.92 30 19.84 30 28 30 C28 29.34 28 28.68 28 28 C27.2575 27.93167969 26.515 27.86335938 25.75 27.79296875 C22.18042066 26.76367244 21.19283548 25.27017527 19 22.3125 C17.9790625 20.96091797 17.9790625 20.96091797 16.9375 19.58203125 C16.298125 18.72996094 15.65875 17.87789062 15 17 C14.0090538 15.82563347 13.01083517 14.6572914 12 13.5 C10 11 10 11 10 9 C9.01 8.67 8.02 8.34 7 8 C7 7.34 7 6.68 7 6 C8.65532623 4.98133771 10.32260138 3.98189187 12 3 C12.33 2.34 12.66 1.68 13 1 C8.71 1 4.42 1 0 1 C0 0.67 0 0.34 0 0 Z " fill="#121212" transform="translate(52,7)"/>
<path d="M0 0 C16.5 0 33 0 50 0 C50 0.66 50 1.32 50 2 C47.69 2.33 45.38 2.66 43 3 C43 8.28 43 13.56 43 19 C45.31 19 47.62 19 50 19 C50 19.66 50 20.32 50 21 C33.5 21 17 21 0 21 C0 20.34 0 19.68 0 19 C2.31 19 4.62 19 7 19 C6.67 13.72 6.34 8.44 6 3 C3.03 2.505 3.03 2.505 0 2 C0 1.34 0 0.68 0 0 Z M23 4 C23 5.32 23 6.64 23 8 C24.32 8 25.64 8 27 8 C27 6.68 27 5.36 27 4 C25.68 4 24.36 4 23 4 Z M23 12 C23 13.65 23 15.3 23 17 C24.32 17 25.64 17 27 17 C27 15.35 27 13.7 27 12 C25.68 12 24.36 12 23 12 Z " fill="#A8A8A8" transform="translate(254,16)"/>
<path d="M0 0 C7.92 0 15.84 0 24 0 C23.01 0.99 22.02 1.98 21 3 C20.27802838 5.60611077 20.27802838 5.60611077 20 8 C22.97 8 25.94 8 29 8 C29 6.02 29 4.04 29 2 C27.68 1.34 26.36 0.68 25 0 C32.92 0 40.84 0 49 0 C49 0.33 49 0.66 49 1 C47.02 1.66 45.04 2.32 43 3 C43 7.62 43 12.24 43 17 C44.98 17.33 46.96 17.66 49 18 C49 18.66 49 19.32 49 20 C46.24973583 20.05404449 43.50053797 20.09369306 40.75 20.125 C39.97269531 20.14175781 39.19539063 20.15851562 38.39453125 20.17578125 C31.27568856 20.23662606 31.27568856 20.23662606 28 18 C28.33 15.36 28.66 12.72 29 10 C26.03 10 23.06 10 20 10 C20.33 12.97 20.66 15.94 21 19 C16.38 19 11.76 19 7 19 C6.67 13.72 6.34 8.44 6 3 C4.02 2.34 2.04 1.68 0 1 C0 0.67 0 0.34 0 0 Z " fill="#C8C8C8" transform="translate(119,17)"/>
<path d="M0 0 C16.63846792 -2.22498248 16.63846792 -2.22498248 21.97851562 1.30957031 C25.75672101 5.02894551 28.36144133 9.43544841 31 14 C33.117494 17.35272637 33.117494 17.35272637 36.6875 18.75 C37.450625 18.8325 38.21375 18.915 39 19 C39 19.66 39 20.32 39 21 C30.75 21 22.5 21 14 21 C14 20.34 14 19.68 14 19 C15.32 19 16.64 19 18 19 C17.67 18.01 17.34 17.02 17 16 C10.07 15.505 10.07 15.505 3 15 C3 16.32 3 17.64 3 19 C4.65 19 6.3 19 8 19 C8 19.66 8 20.32 8 21 C3.05 21 -1.9 21 -7 21 C-7 20.34 -7 19.68 -7 19 C-6.27554688 18.78214844 -5.55109375 18.56429687 -4.8046875 18.33984375 C-1.28175237 16.6568817 0.42555105 14.58616403 2.875 11.5625 C3.67679688 10.59441406 4.47859375 9.62632813 5.3046875 8.62890625 C5.86414063 7.76136719 6.42359375 6.89382812 7 6 C6.67 5.01 6.34 4.02 6 3 C3.03 2.505 3.03 2.505 0 2 C0 1.34 0 0.68 0 0 Z " fill="#B4B4B4" transform="translate(178,16)"/>
<path d="M0 0 C16.62521266 -1.52214561 16.62521266 -1.52214561 22.08984375 1.98046875 C24.35634085 4.54141676 26.21011483 7.08879197 28 10 C30.81236859 14.76462849 30.81236859 14.76462849 35.13671875 17.68359375 C35.75160156 17.78800781 36.36648437 17.89242187 37 18 C37 18.66 37 19.32 37 20 C29.08 20 21.16 20 13 20 C13 19.34 13 18.68 13 18 C13.99 18 14.98 18 16 18 C15.67 16.68 15.34 15.36 15 14 C10.71 14 6.42 14 2 14 C2 15.32 2 16.64 2 18 C3.65 18 5.3 18 7 18 C7 18.66 7 19.32 7 20 C2.05 20 -2.9 20 -8 20 C-8 19.34 -8 18.68 -8 18 C-7.27554688 17.78214844 -6.55109375 17.56429687 -5.8046875 17.33984375 C-2.28175237 15.6568817 -0.57444895 13.58616403 1.875 10.5625 C2.67679688 9.59441406 3.47859375 8.62632813 4.3046875 7.62890625 C4.86414062 6.76136719 5.42359375 5.89382812 6 5 C5.67 4.01 5.34 3.02 5 2 C3.35 1.67 1.7 1.34 0 1 C0 0.67 0 0.34 0 0 Z " fill="#C6C6C6" transform="translate(43,17)"/>
<path d="M0 0 C10.56 0 21.12 0 32 0 C32 3.3 32 6.6 32 10 C29 9 29 9 24 3 C23.67 8.28 23.34 13.56 23 19 C25.31 19 27.62 19 30 19 C30 19.66 30 20.32 30 21 C20.76 21 11.52 21 2 21 C2 20.34 2 19.68 2 19 C4.31 19 6.62 19 9 19 C8.67 13.72 8.34 8.44 8 3 C7.05125 4.155 6.1025 5.31 5.125 6.5 C3.5078125 8.46875 3.5078125 8.46875 2 10 C1.34 10 0.68 10 0 10 C0 6.7 0 3.4 0 0 Z " fill="#BDBDBD" transform="translate(82,16)"/>
<path d="M0 0 C1.88525391 0.00966797 1.88525391 0.00966797 3.80859375 0.01953125 C7.4804779 0.18382992 10.93958414 0.60315873 14.5625 1.1875 C14.5625 3.4975 14.5625 5.8075 14.5625 8.1875 C10.5625 8.1875 10.5625 8.1875 8.4375 6.25 C7.81875 5.569375 7.2 4.88875 6.5625 4.1875 C3.60585481 2.7091774 0.82020263 3.12717217 -2.4375 3.1875 C-2.46442484 5.47910319 -2.48386124 7.77079546 -2.5 10.0625 C-2.51160156 11.33867187 -2.52320313 12.61484375 -2.53515625 13.9296875 C-2.66926569 17.07414652 -2.66926569 17.07414652 -1.4375 19.1875 C3.65209486 19.36002864 6.8434815 19.15375771 11.5625 17.1875 C13.703125 17.62890625 13.703125 17.62890625 15.5625 18.1875 C7.92768979 22.97796915 0.6766253 23.33943665 -8.1328125 21.6796875 C-11.81252167 20.62313734 -14.10262799 19.48153396 -17 16.9375 C-18.88564435 13.33018037 -19.08332786 11.20598448 -18.4375 7.1875 C-13.54722965 0.71508336 -7.75684006 -0.08733392 0 0 Z " fill="#F7F7F7" transform="translate(235.4375,15.8125)"/>
<path d="M0 0 C0 2.31 0 4.62 0 7 C-0.99 7 -1.98 7 -3 7 C-3 6.34 -3 5.68 -3 5 C-3.61875 4.690625 -4.2375 4.38125 -4.875 4.0625 C-6.25 3.375 -7.625 2.6875 -9 2 C-11.3329866 1.95977609 -13.66706666 1.95679753 -16 2 C-16.02685095 4.47923801 -16.04676547 6.9581884 -16.0625 9.4375 C-16.07087891 10.14455078 -16.07925781 10.85160156 -16.08789062 11.58007812 C-16.09653588 13.38693559 -16.05220011 15.19387603 -16 17 C-14.78556725 18.43827256 -14.78556725 18.43827256 -11.1875 18.1875 C-7.88283436 18.15804665 -5.89070859 17.65183348 -3 16 C-1.68 16 -0.36 16 1 16 C1 16.66 1 17.32 1 18 C-6.6518342 21.24623269 -14.5315806 22.56584696 -22.66015625 20.23828125 C-26.59163951 18.62093936 -30.25297267 17.07639711 -32 13 C-32.5 9.5625 -32.5 9.5625 -32 6 C-24.67674967 -3.69253721 -10.79573255 -2.05633001 0 0 Z " fill="#FAFAFA" transform="translate(33,17)"/>
<path d="M0 0 C7.92 0 15.84 0 24 0 C23.01 0.99 22.02 1.98 21 3 C20.78285759 5.81127043 20.71715724 8.3883345 20.8125 11.1875 C20.82603516 11.93708984 20.83957031 12.68667969 20.85351562 13.45898438 C20.88881461 15.30629767 20.94262083 17.15324066 21 19 C16.38 19 11.76 19 7 19 C6.67 13.72 6.34 8.44 6 3 C4.02 2.34 2.04 1.68 0 1 C0 0.67 0 0.34 0 0 Z " fill="#FBFBFB" transform="translate(119,17)"/>
<path d="M0 0 C16.5 0 33 0 50 0 C50.66 1.32 51.32 2.64 52 4 C49.69 4.66 47.38 5.32 45 6 C45 10.29 45 14.58 45 19 C46.65 19 48.3 19 50 19 C51.0625 20.875 51.0625 20.875 52 23 C51.67 23.66 51.34 24.32 51 25 C33.84 25 16.68 25 -1 25 C-1 24.67 -1 24.34 -1 24 C15.83 24 32.66 24 50 24 C50 23.01 50 22.02 50 21 C47.69 21 45.38 21 43 21 C43 15.72 43 10.44 43 5 C46.465 4.505 46.465 4.505 50 4 C50 3.34 50 2.68 50 2 C33.5 2 17 2 0 2 C0 2.66 0 3.32 0 4 C1.98 4 3.96 4 6 4 C6 9.28 6 14.56 6 20 C4.02 20 2.04 20 0 20 C0 19.67 0 19.34 0 19 C1.65 19 3.3 19 5 19 C5 14.71 5 10.42 5 6 C2.03 5.505 2.03 5.505 -1 5 C-0.67 3.35 -0.34 1.7 0 0 Z " fill="#0A0A0A" transform="translate(254,14)"/>
<path d="M0 0 C2.64 0 5.28 0 8 0 C8 3.3 8 6.6 8 10 C2.07520034 9.65148237 -0.02942457 8.29251397 -4 4 C-5.32 3.67 -6.64 3.34 -8 3 C-8 7.95 -8 12.9 -8 18 C-1.40512706 16.84103454 -1.40512706 16.84103454 4.9375 14.8125 C7 14 7 14 10 15 C10 15.99 10 16.98 10 18 C12.31 18 14.62 18 17 18 C17 13.05 17 8.1 17 3 C17.33 3 17.66 3 18 3 C18 8.28 18 13.56 18 19 C15.69 19 13.38 19 11 19 C11 19.66 11 20.32 11 21 C27.5 21 44 21 61 21 C61 21.33 61 21.66 61 22 C44.17 22 27.34 22 10 22 C9.67 21.34 9.34 20.68 9 20 C7.989375 20.66 6.97875 21.32 5.9375 22 C-0.24585664 25.17553939 -7.24990423 24.31641074 -14 24 C-14 23.67 -14 23.34 -14 23 C-9.38 23 -4.76 23 0 23 C0 22.34 0 21.68 0 21 C2.31 20.01 4.62 19.02 7 18 C6.4225 18.144375 5.845 18.28875 5.25 18.4375 C4.5075 18.623125 3.765 18.80875 3 19 C2.4225 19.185625 1.845 19.37125 1.25 19.5625 C-2.27551203 20.24801623 -5.40145296 20.23216433 -9 20 C-11.47599533 16.286007 -11.23739325 14.29282091 -11.1875 9.875 C-11.18105469 8.61429688 -11.17460937 7.35359375 -11.16796875 6.0546875 C-11 3 -11 3 -10 2 C-5.6638498 1.57488724 -3.42952353 1.76571444 0.4375 3.875 C1.283125 4.57625 2.12875 5.2775 3 6 C3 6.66 3 7.32 3 8 C4.32 8 5.64 8 7 8 C7 5.69 7 3.38 7 1 C4.69 1 2.38 1 0 1 C0 0.67 0 0.34 0 0 Z " fill="#1B1B1B" transform="translate(243,16)"/>
<path d="M0 0 C2.64 0 5.28 0 8 0 C8 2.31 8 4.62 8 7 C10.97 7 13.94 7 17 7 C17 5.02 17 3.04 17 1 C17.66 0.67 18.32 0.34 19 0 C19.33 5.94 19.66 11.88 20 18 C19.01 18 18.02 18 17 18 C17 15.03 17 12.06 17 9 C14.03 9 11.06 9 8 9 C8.33 11.97 8.66 14.94 9 18 C5.7 18 2.4 18 -1 18 C-0.505 9.09 -0.505 9.09 0 0 Z " fill="#FCFCFC" transform="translate(267,18)"/>
<path d="M0 0 C1.93166016 0.01740234 1.93166016 0.01740234 3.90234375 0.03515625 C5.19269531 0.04417969 6.48304687 0.05320312 7.8125 0.0625 C8.81152344 0.07410156 9.81054688 0.08570313 10.83984375 0.09765625 C9.4804729 2.95824535 8.19463906 4.95693324 5.83984375 7.09765625 C6.49984375 7.75765625 7.15984375 8.41765625 7.83984375 9.09765625 C3.21984375 9.42765625 -1.40015625 9.75765625 -6.16015625 10.09765625 C-5.50015625 11.41765625 -4.84015625 12.73765625 -4.16015625 14.09765625 C-5.48015625 15.08765625 -6.80015625 16.07765625 -8.16015625 17.09765625 C-8.16015625 15.44765625 -8.16015625 13.79765625 -8.16015625 12.09765625 C-10.14015625 11.43765625 -12.12015625 10.77765625 -14.16015625 10.09765625 C-13.83015625 9.10765625 -13.50015625 8.11765625 -13.16015625 7.09765625 C-12.50015625 7.09765625 -11.84015625 7.09765625 -11.16015625 7.09765625 C-11.16015625 5.44765625 -11.16015625 3.79765625 -11.16015625 2.09765625 C-9.45859375 1.88109375 -9.45859375 1.88109375 -7.72265625 1.66015625 C-4.02637385 1.07653271 -3.6179549 0.1118033 0 0 Z " fill="#1F1F1F" transform="translate(54.16015625,7.90234375)"/>
<path d="M0 0 C2.7109375 -0.2890625 2.7109375 -0.2890625 6 0 C8.4140625 1.9765625 8.4140625 1.9765625 10.625 4.625 C11.38941406 5.53636719 12.15382812 6.44773437 12.94140625 7.38671875 C19 15.07779886 19 15.07779886 19 19 C15.94122588 19.41604653 13.9584565 19.65589974 11 19 C8.25400395 16.7869758 6.41069398 14.0886689 4.4375 11.1875 C3.89287109 10.44951172 3.34824219 9.71152344 2.78710938 8.95117188 C-0.0762273 4.9410489 -0.0762273 4.9410489 -1 3 C-0.67 2.01 -0.34 1.02 0 0 Z " fill="#F0F0F0" transform="translate(192,17)"/>
<path d="M0 0 C6.93 0 13.86 0 21 0 C20.67 0.66 20.34 1.32 20 2 C17.36 1.67 14.72 1.34 12 1 C12 6.61 12 12.22 12 18 C16.62 18 21.24 18 26 18 C26 18.66 26 19.32 26 20 C17.09 20 8.18 20 -1 20 C-1 19.34 -1 18.68 -1 18 C1.31 18 3.62 18 6 18 C5.67 12.72 5.34 7.44 5 2 C3.35 1.67 1.7 1.34 0 1 C0 0.67 0 0.34 0 0 Z " fill="#C6C6C6" transform="translate(255,17)"/>
<path d="M0 0 C6.84983221 -0.80411074 6.84983221 -0.80411074 9.78515625 1.24804688 C11.48567717 3.00388595 12.99947251 4.82075037 14.5 6.75 C15.03625 7.38421875 15.5725 8.0184375 16.125 8.671875 C20 13.41677296 20 13.41677296 20 18 C16.9368669 18.41951605 14.9608739 18.66368965 12 18 C9.27758575 15.7616036 7.45205698 13.03814626 5.5 10.125 C4.96375 9.37863281 4.4275 8.63226563 3.875 7.86328125 C0 2.37699298 0 2.37699298 0 0 Z " fill="#F0F0F0" transform="translate(55,18)"/>
<path d="M0 0 C2.64 0 5.28 0 8 0 C8.33 5.94 8.66 11.88 9 18 C5.7 18 2.4 18 -1 18 C-0.505 9.09 -0.505 9.09 0 0 Z " fill="#F8F8F8" transform="translate(289,18)"/>
<path d="M0 0 C16.5 0 33 0 50 0 C50 0.99 50 1.98 50 3 C48.35 3.33 46.7 3.66 45 4 C44.67 8.62 44.34 13.24 44 18 C45.65 18 47.3 18 49 18 C49 18.33 49 18.66 49 19 C47.00045254 19.04254356 44.99958364 19.04080783 43 19 C41.06658053 17.06658053 41.82550867 13.62520879 41.8125 11.0625 C41.79832031 9.79535156 41.78414062 8.52820312 41.76953125 7.22265625 C42 4 42 4 44 2 C38.39 2 32.78 2 27 2 C27.66 2.33 28.32 2.66 29 3 C29 4.98 29 6.96 29 9 C26.03 9 23.06 9 20 9 C19.875 6.625 19.875 6.625 20 4 C20.66 3.34 21.32 2.68 22 2 C14.74 1.67 7.48 1.34 0 1 C0 0.67 0 0.34 0 0 Z M23 4 C23 5.32 23 6.64 23 8 C24.32 8 25.64 8 27 8 C26.67 6.35 26.34 4.7 26 3 C24.7763932 2.9254644 24.7763932 2.9254644 23 4 Z " fill="#777777" transform="translate(119,16)"/>
<path d="M0 0 C2.31 0 4.62 0 7 0 C7.04898438 1.04800781 7.09796875 2.09601562 7.1484375 3.17578125 C7.22348143 4.55471354 7.29902857 5.9336185 7.375 7.3125 C7.4059375 8.00279297 7.436875 8.69308594 7.46875 9.40429688 C7.68124919 13.06990789 7.91933861 14.87900792 10 18 C6.7 18 3.4 18 0 18 C0 12.06 0 6.12 0 0 Z " fill="#FCFCFC" transform="translate(96,18)"/>
<path d="M0 0 C2.31 0 4.62 0 7 0 C7 5.28 7 10.56 7 16 C7.66 16 8.32 16 9 16 C9 16.66 9 17.32 9 18 C6.03 18 3.06 18 0 18 C0 12.06 0 6.12 0 0 Z " fill="#FDFDFD" transform="translate(153,18)"/>
<path d="M0 0 C2.475 0.99 2.475 0.99 5 2 C4.34 5.63 3.68 9.26 3 13 C1.35 13.33 -0.3 13.66 -2 14 C-2.33 13.01 -2.66 12.02 -3 11 C-3.66 11 -4.32 11 -5 11 C-5.33 13.64 -5.66 16.28 -6 19 C-4.35 19 -2.7 19 -1 19 C-0.67 20.65 -0.34 22.3 0 24 C-9.57 24 -19.14 24 -29 24 C-29 23.67 -29 23.34 -29 23 C-19.76 23 -10.52 23 -1 23 C-1 22.34 -1 21.68 -1 21 C-3.31 21 -5.62 21 -8 21 C-8 15.39 -8 9.78 -8 4 C-4.9164636 6.56961367 -1.83823106 9.16176894 1 12 C0.67 8.04 0.34 4.08 0 0 Z " fill="#181818" transform="translate(113,14)"/>
<path d="M0 0 C0.33 0 0.66 0 1 0 C1 5.94 1 11.88 1 18 C3.97 17.67 6.94 17.34 10 17 C10 14.36 10 11.72 10 9 C12.97 9 15.94 9 19 9 C18.90234375 11.01822917 18.8046875 13.03645833 18.70703125 15.0546875 C18.80371094 15.69664063 18.90039062 16.33859375 19 17 C19.99 17.66 20.98 18.32 22 19 C11.44 19 0.88 19 -10 19 C-10 18.34 -10 17.68 -10 17 C-6.535 16.505 -6.535 16.505 -3 16 C-3 16.66 -3 17.32 -3 18 C-2.01 18 -1.02 18 0 18 C0 12.06 0 6.12 0 0 Z M13 10 C13 11.65 13 13.3 13 15 C14.32 15 15.64 15 17 15 C17 13.35 17 11.7 17 10 C15.68 10 14.36 10 13 10 Z " fill="#9C9C9C" transform="translate(129,18)"/>
<path d="M0 0 C2.64 0 5.28 0 8 0 C8 3.3 8 6.6 8 10 C2.07520034 9.65148237 -0.02942457 8.29251397 -4 4 C-5.32 3.67 -6.64 3.34 -8 3 C-8 7.95 -8 12.9 -8 18 C-6.47375 17.67 -4.9475 17.34 -3.375 17 C0.48705528 16.2210059 4.04469712 15.79182616 8 16 C6.67661368 16.68620031 5.34050052 17.34786461 4 18 C3.2575 18.37125 2.515 18.7425 1.75 19.125 C-2.07462383 20.34192576 -4.985429 20.3290632 -9 20 C-11.47599533 16.286007 -11.23739325 14.29282091 -11.1875 9.875 C-11.18105469 8.61429688 -11.17460937 7.35359375 -11.16796875 6.0546875 C-11 3 -11 3 -10 2 C-5.6638498 1.57488724 -3.42952353 1.76571444 0.4375 3.875 C1.283125 4.57625 2.12875 5.2775 3 6 C3 6.66 3 7.32 3 8 C4.32 8 5.64 8 7 8 C7 5.69 7 3.38 7 1 C4.69 1 2.38 1 0 1 C0 0.67 0 0.34 0 0 Z " fill="#1B1B1B" transform="translate(243,16)"/>
<path d="M0 0 C2.64 0.66 5.28 1.32 8 2 C8 2.99 8 3.98 8 5 C13.28 5 18.56 5 24 5 C24.33 4.34 24.66 3.68 25 3 C24.67 4.32 24.34 5.64 24 7 C1.23 7 -21.54 7 -45 7 C-45 6.67 -45 6.34 -45 6 C-28.17 6 -11.34 6 6 6 C5.505 4.515 5.505 4.515 5 3 C2.525 2.505 2.525 2.505 0 2 C0 1.34 0 0.68 0 0 Z " fill="#070707" transform="translate(163,32)"/>
<path d="M0 0 C0 3.63 0 7.26 0 11 C-1.98 11 -3.96 11 -6 11 C-6.33 10.01 -6.66 9.02 -7 8 C-9.8201938 6.28773948 -12.92955871 5.1940605 -16 4 C-17.0541518 7.16245541 -17.31275672 9.86948218 -17.5625 13.1875 C-17.64628906 14.27417969 -17.73007812 15.36085938 -17.81640625 16.48046875 C-17.87699219 17.31191406 -17.93757813 18.14335938 -18 19 C-18.33 19 -18.66 19 -19 19 C-19.02685095 16.52076199 -19.04676547 14.0418116 -19.0625 11.5625 C-19.07506836 10.50192383 -19.07506836 10.50192383 -19.08789062 9.41992188 C-19.09653588 7.61306441 -19.05220011 5.80612397 -19 4 C-18 3 -18 3 -14.8125 2.6875 C-10.39640761 3.04947479 -8.37874762 4.19811173 -5 7 C-5 7.66 -5 8.32 -5 9 C-4.01 9 -3.02 9 -2 9 C-2 6.69 -2 4.38 -2 2 C-8.6 1.67 -15.2 1.34 -22 1 C-22 0.67 -22 0.34 -22 0 C-19.08365878 -0.19502282 -16.16720455 -0.38129328 -13.25 -0.5625 C-12.0125 -0.64661133 -12.0125 -0.64661133 -10.75 -0.73242188 C-9.95078125 -0.78076172 -9.1515625 -0.82910156 -8.328125 -0.87890625 C-7.5949707 -0.9260376 -6.86181641 -0.97316895 -6.10644531 -1.02172852 C-4 -1 -4 -1 0 0 Z " fill="#232323" transform="translate(35,15)"/>
<path d="M0 0 C0.33 0 0.66 0 1 0 C1 5.94 1 11.88 1 18 C6.28 17.67 11.56 17.34 17 17 C17 17.66 17 18.32 17 19 C9.41 19 1.82 19 -6 19 C-6 18.34 -6 17.68 -6 17 C-7.98 17 -9.96 17 -12 17 C-12 14.36 -12 11.72 -12 9 C-9.03 9 -6.06 9 -3 9 C-3 11.97 -3 14.94 -3 18 C-2.01 18 -1.02 18 0 18 C0 12.06 0 6.12 0 0 Z M-10 10 C-10 11.65 -10 13.3 -10 15 C-8.68 15 -7.36 15 -6 15 C-6 13.35 -6 11.7 -6 10 C-7.32 10 -8.64 10 -10 10 Z " fill="#9A9A9A" transform="translate(287,18)"/>
<path d="M0 0 C7.92 0 15.84 0 24 0 C22.68 0.99 21.36 1.98 20 3 C20 2.34 20 1.68 20 1 C17.36 1 14.72 1 12 1 C12 6.61 12 12.22 12 18 C10.35 18.33 8.7 18.66 7 19 C6.67 13.72 6.34 8.44 6 3 C4.02 2.34 2.04 1.68 0 1 C0 0.67 0 0.34 0 0 Z " fill="#E1E1E1" transform="translate(119,17)"/>
<path d="M0 0 C10.56 0 21.12 0 32 0 C32 0.33 32 0.66 32 1 C24.74 1 17.48 1 10 1 C10 6.61 10 12.22 10 18 C9.67 18 9.34 18 9 18 C8.67 13.05 8.34 8.1 8 3 C7.05125 4.155 6.1025 5.31 5.125 6.5 C3.5078125 8.46875 3.5078125 8.46875 2 10 C1.34 10 0.68 10 0 10 C0 6.7 0 3.4 0 0 Z " fill="#9B9B9B" transform="translate(82,16)"/>
<path d="M0 0 C4.95 0 9.9 0 15 0 C14 5 14 5 12 8 C12.30840599 10.15274948 12.30840599 10.15274948 13 12 C13.66 12 14.32 12 15 12 C16.7265625 13.8984375 16.7265625 13.8984375 18.625 16.375 C19.25664063 17.18710937 19.88828125 17.99921875 20.5390625 18.8359375 C22 21 22 21 22 23 C22.99 23.33 23.98 23.66 25 24 C25 24.99 25 25.98 25 27 C25.99 27.33 26.98 27.66 28 28 C24.7101712 27.69729006 23.30301755 27.30473924 20.9375 24.92578125 C20.298125 24.06339844 19.65875 23.20101563 19 22.3125 C17.9790625 20.96091797 17.9790625 20.96091797 16.9375 19.58203125 C16.298125 18.72996094 15.65875 17.87789062 15 17 C14.0090538 15.82563347 13.01083517 14.6572914 12 13.5 C10 11 10 11 10 9 C9.01 8.67 8.02 8.34 7 8 C7 7.34 7 6.68 7 6 C8.65532623 4.98133771 10.32260138 3.98189187 12 3 C12.33 2.34 12.66 1.68 13 1 C8.71 1 4.42 1 0 1 C0 0.67 0 0.34 0 0 Z " fill="#1B1B1B" transform="translate(52,7)"/>
<path d="M0 0 C0.66 0 1.32 0 2 0 C1.39940656 3.27070165 0.32617975 5.21607057 -1.8125 7.75 C-2.31394531 8.36359375 -2.81539062 8.9771875 -3.33203125 9.609375 C-5 11 -5 11 -9 11 C-9.33 11.66 -9.66 12.32 -10 13 C-11.65 13 -13.3 13 -15 13 C-12 11 -12 11 -10 11 C-10 10.34 -10 9.68 -10 9 C-11.155 9.495 -12.31 9.99 -13.5 10.5 C-17.87056054 12.15162003 -21.35405189 12.32603145 -26 12 C-27 11 -27 11 -27.0625 8.4375 C-27.041875 7.633125 -27.02125 6.82875 -27 6 C-26.34 7.32 -25.68 8.64 -25 10 C-21.7 9.67 -18.4 9.34 -15 9 C-15 8.34 -15 7.68 -15 7 C-11.66666667 7 -8.33333333 7 -5 7 C-4.34 6.01 -3.68 5.02 -3 4 C-2.34 4 -1.68 4 -1 4 C-0.67 2.68 -0.34 1.36 0 0 Z " fill="#1D1D1D" transform="translate(44,24)"/>
<path d="M0 0 C1.66666667 1.66666667 3.33333333 3.33333333 5 5 C5.598125 5.556875 6.19625 6.11375 6.8125 6.6875 C8 8 8 8 8 10 C10.64 10 13.28 10 16 10 C16.33 9.34 16.66 8.68 17 8 C19.475 8.495 19.475 8.495 22 9 C22 9.66 22 10.32 22 11 C13.75 11 5.5 11 -3 11 C-3 10.34 -3 9.68 -3 9 C-1.68 9 -0.36 9 1 9 C0.505 8.236875 0.01 7.47375 -0.5 6.6875 C-2 4 -2 4 -2 1 C-1.34 0.67 -0.68 0.34 0 0 Z " fill="#A2A2A2" transform="translate(195,26)"/>
<path d="M0 0 C14.78132118 -0.18451025 14.78132118 -0.18451025 21 1 C21 3.31 21 5.62 21 8 C20.01 8 19.02 8 18 8 C18 7.34 18 6.68 18 6 C17.38125 5.690625 16.7625 5.38125 16.125 5.0625 C14.75 4.375 13.375 3.6875 12 3 C9.69 3 7.38 3 5 3 C4.67 7.95 4.34 12.9 4 18 C3.67 18 3.34 18 3 18 C3 12.39 3 6.78 3 1 C2.01 0.67 1.02 0.34 0 0 Z " fill="#C6C6C6" transform="translate(12,16)"/>
<path d="M0 0 C4.33276284 1.54525108 6.54179501 4.88269814 9.1875 8.4375 C9.86329102 9.31631836 9.86329102 9.31631836 10.55273438 10.21289062 C12.50288953 12.78873274 13.97151768 14.91455304 15 18 C17.64 18 20.28 18 23 18 C23.33 17.34 23.66 16.68 24 16 C25.32 16.33 26.64 16.66 28 17 C28 17.66 28 18.32 28 19 C20.08 19 12.16 19 4 19 C4 18.34 4 17.68 4 17 C4.99 17 5.98 17 7 17 C6.67 15.68 6.34 14.36 6 13 C6.66 13.33 7.32 13.66 8 14 C8 15.32 8 16.64 8 18 C9.32 18 10.64 18 12 18 C9.11478729 12.47000897 5.585169 7.84193773 1.609375 3.0390625 C0 1 0 1 0 0 Z " fill="#999999" transform="translate(52,18)"/>
<path d="M0 0 C0.66 0.33 1.32 0.66 2 1 C1.175 1.886875 0.35 2.77375 -0.5 3.6875 C-2.41407829 5.96925434 -2.96939154 6.77043656 -3.375 9.8125 C-3.22173484 11.9707534 -3.22173484 11.9707534 -2 13 C-1.95936168 14.66617115 -1.957279 16.33388095 -2 18 C-5.16115776 16.63016497 -5.9927092 16.0109362 -8 13 C-8.4375 9.625 -8.4375 9.625 -8 6 C-5.45862841 2.84045695 -3.85377341 1.28459114 0 0 Z " fill="#D5D5D5" transform="translate(9,17)"/>
<path d="M0 0 C2.35424675 -0.02726927 4.70816962 -0.04696719 7.0625 -0.0625 C8.37347656 -0.07410156 9.68445313 -0.08570313 11.03515625 -0.09765625 C14.8163519 -0.00452335 18.27920707 0.38551274 22 1 C22 3.31 22 5.62 22 8 C20.68 8 19.36 8 18 8 C17.443125 7.38125 16.88625 6.7625 16.3125 6.125 C12.95318344 3.03806046 9.40105471 2.74395053 5 2 C3.989375 1.79375 2.97875 1.5875 1.9375 1.375 C1.298125 1.25125 0.65875 1.1275 0 1 C0 0.67 0 0.34 0 0 Z " fill="#B4B4B4" transform="translate(228,16)"/>
<path d="M0 0 C0.33 0 0.66 0 1 0 C1.33 5.94 1.66 11.88 2 18 C1.01 18 0.02 18 -1 18 C-1 15.03 -1 12.06 -1 9 C-3.97 9 -6.94 9 -10 9 C-10 11.31 -10 13.62 -10 16 C-10.33 16 -10.66 16 -11 16 C-11 11.05 -11 6.1 -11 1 C-10.67 1 -10.34 1 -10 1 C-10 2.98 -10 4.96 -10 7 C-7.03 7 -4.06 7 -1 7 C-1.020625 6.030625 -1.04125 5.06125 -1.0625 4.0625 C-1 1 -1 1 0 0 Z " fill="#D7D7D7" transform="translate(285,18)"/>
<path d="M0 0 C-2.625 3.875 -2.625 3.875 -6 5 C-8.57265818 5.07029121 -11.11641431 5.09370832 -13.6875 5.0625 C-14.38939453 5.05798828 -15.09128906 5.05347656 -15.81445312 5.04882812 C-17.54300538 5.03706927 -19.27151365 5.01913454 -21 5 C-15.04028488 -0.95971512 -7.89486772 -0.35001877 0 0 Z " fill="#D3D3D3" transform="translate(65,9)"/>
<path d="M0 0 C0.66 0 1.32 0 2 0 C1.33333333 2.66666667 0.66666667 5.33333333 0 8 C1.65 8 3.3 8 5 8 C5 8.66 5 9.32 5 10 C0.05 10 -4.9 10 -10 10 C-10 9.34 -10 8.68 -10 8 C-8.9171875 7.690625 -8.9171875 7.690625 -7.8125 7.375 C-5.05249768 6.02566553 -4.15478986 5.19979435 -2.3125 2.875 C-1.549375 1.92625 -0.78625 0.9775 0 0 Z " fill="#C8C8C8" transform="translate(181,27)"/>
<path d="M0 0 C0.66 0.66 1.32 1.32 2 2 C7.13383977 2.33664523 10.25405134 1.97747861 15 0 C17.140625 0.44140625 17.140625 0.44140625 19 1 C11.54127062 5.67998706 4.24506231 6.20411332 -4.390625 4.5390625 C-6.3125 4 -6.3125 4 -9 3 C-5.67465243 1.89155081 -3.37817425 2.15545644 0 3 C0 2.01 0 1.02 0 0 Z " fill="#AAAAAA" transform="translate(232,33)"/>
<path d="M0 0 C0.33 0 0.66 0 1 0 C1 3.63 1 7.26 1 11 C1.66 11 2.32 11 3 11 C3 12.32 3 13.64 3 15 C3.65226563 14.855625 4.30453125 14.71125 4.9765625 14.5625 C9.72620177 13.55372706 14.11409188 12.74284694 19 13 C17.67661368 13.68620031 16.34050052 14.34786461 15 15 C14.2575 15.37125 13.515 15.7425 12.75 16.125 C8.92537617 17.34192576 6.014571 17.3290632 2 17 C-0.49118953 13.2632157 -0.2065226 11.25548181 -0.125 6.8125 C-0.10695312 5.54019531 -0.08890625 4.26789062 -0.0703125 2.95703125 C-0.04710937 1.98121094 -0.02390625 1.00539063 0 0 Z " fill="#2B2B2B" transform="translate(232,19)"/>
<path d="M0 0 C7.92 0 15.84 0 24 0 C24 0.33 24 0.66 24 1 C22.02 1.66 20.04 2.32 18 3 C17.67 7.62 17.34 12.24 17 17 C16.67 17 16.34 17 16 17 C16 11.72 16 6.44 16 1 C13.03 1 10.06 1 7 1 C6.34 3.31 5.68 5.62 5 8 C4.67 8 4.34 8 4 8 C4 6.02 4 4.04 4 2 C2.68 1.34 1.36 0.68 0 0 Z " fill="#D5D5D5" transform="translate(144,17)"/>
<path d="M0 0 C0 0.66 0 1.32 0 2 C-8.11194241 5.44143011 -16.17742364 6.28602036 -24.75 4 C-25.86375 3.505 -25.86375 3.505 -27 3 C-23.67465243 1.89155081 -21.37817425 2.15545644 -18 3 C-17.67 2.34 -17.34 1.68 -17 1 C-16.67 1.33 -16.34 1.66 -16 2 C-9.96691937 2.29670888 -5.67869299 0 0 0 Z " fill="#B5B5B5" transform="translate(34,33)"/>
<path d="M0 0 C2.97 0 5.94 0 9 0 C9 2.64 9 5.28 9 8 C6.03 8 3.06 8 0 8 C0 5.36 0 2.72 0 0 Z M3 1 C3 2.65 3 4.3 3 6 C4.32 6 5.64 6 7 6 C7 4.35 7 2.7 7 1 C5.68 1 4.36 1 3 1 Z " fill="#282828" transform="translate(139,27)"/>
<path d="M0 0 C1.65 0 3.3 0 5 0 C5.66 1.32 6.32 2.64 7 4 C5.26384827 6.17916976 3.51275671 8.34252932 1.75 10.5 C1.25886719 11.12003906 0.76773438 11.74007813 0.26171875 12.37890625 C-1.07097245 13.9959049 -2.530684 15.50605859 -4 17 C-5.32 17 -6.64 17 -8 17 C-8 16.34 -8 15.68 -8 15 C-6.68 15 -5.36 15 -4 15 C-3.71125 14.4225 -3.4225 13.845 -3.125 13.25 C-2.75375 12.5075 -2.3825 11.765 -2 11 C-1.566875 10.01 -1.566875 10.01 -1.125 9 C0.2412336 6.57114027 1.97151925 4.8932487 4 3 C2.68 2.01 1.36 1.02 0 0 Z " fill="#161616" transform="translate(179,18)"/>
<path d="M0 0 C2.97 0 5.94 0 9 0 C9.04241723 2.33294775 9.04092937 4.66702567 9 7 C8 8 8 8 6.15234375 8.09765625 C4.1015625 8.06510417 2.05078125 8.03255208 0 8 C0 5.36 0 2.72 0 0 Z M2 1 C2 2.65 2 4.3 2 6 C3.32 6 4.64 6 6 6 C6 4.35 6 2.7 6 1 C4.68 1 3.36 1 2 1 Z " fill="#282828" transform="translate(275,27)"/>
<path d="M0 0 C0.66 0.33 1.32 0.66 2 1 C1.360625 1.474375 0.72125 1.94875 0.0625 2.4375 C-2.84850272 6.05420035 -2.80649782 9.47204894 -3 14 C-3.99 13.34 -4.98 12.68 -6 12 C-6.99 12.495 -6.99 12.495 -8 13 C-8.43494462 8.56356484 -8.54001196 6.67136622 -5.6875 3.125 C-3 1 -3 1 0 0 Z " fill="#B4B4B4" transform="translate(225,17)"/>
<path d="M0 0 C2.31 0.33 4.62 0.66 7 1 C7 2.32 7 3.64 7 5 C16.57 5 26.14 5 36 5 C36 5.33 36 5.66 36 6 C25.11 6 14.22 6 3 6 C3 4.68 3 3.36 3 2 C2.01 1.34 1.02 0.68 0 0 Z " fill="#010101" transform="translate(77,33)"/>
<path d="M0 0 C1.18239258 0.07831055 1.18239258 0.07831055 2.38867188 0.15820312 C4.32201529 0.28709269 6.25482164 0.42399494 8.1875 0.5625 C8.5175 1.2225 8.8475 1.8825 9.1875 2.5625 C0.9375 2.5625 -7.3125 2.5625 -15.8125 2.5625 C-11.56738796 -1.68261204 -5.55518928 -0.40511439 0 0 Z " fill="#0F0F0F" transform="translate(241.8125,13.4375)"/>
<path d="M0 0 C0 2.97 0 5.94 0 9 C-0.66 9 -1.32 9 -2 9 C-2 6.69 -2 4.38 -2 2 C-8.6 1.67 -15.2 1.34 -22 1 C-22 0.67 -22 0.34 -22 0 C-19.08365878 -0.19502282 -16.16720455 -0.38129328 -13.25 -0.5625 C-12.0125 -0.64661133 -12.0125 -0.64661133 -10.75 -0.73242188 C-9.95078125 -0.78076172 -9.1515625 -0.82910156 -8.328125 -0.87890625 C-7.5949707 -0.9260376 -6.86181641 -0.97316895 -6.10644531 -1.02172852 C-4 -1 -4 -1 0 0 Z " fill="#323232" transform="translate(35,15)"/>
<path d="M0 0 C0.94875 0.04125 1.8975 0.0825 2.875 0.125 C-0.125 2.125 -0.125 2.125 -2.125 2.125 C-2.455 6.745 -2.785 11.365 -3.125 16.125 C-1.475 16.125 0.175 16.125 1.875 16.125 C1.875 16.455 1.875 16.785 1.875 17.125 C-0.12454746 17.16754356 -2.12541636 17.16580783 -4.125 17.125 C-6.05841947 15.19158053 -5.29949133 11.75020879 -5.3125 9.1875 C-5.32667969 7.92035156 -5.34085938 6.65320312 -5.35546875 5.34765625 C-5.04435787 0.99737706 -4.38396101 0.17535844 0 0 Z " fill="#313131" transform="translate(166.125,17.875)"/>
<path d="M0 0 C6.6 0 13.2 0 20 0 C20 0.33 20 0.66 20 1 C15.38 1.33 10.76 1.66 6 2 C6.66 3.32 7.32 4.64 8 6 C6.68 6.99 5.36 7.98 4 9 C4 7.35 4 5.7 4 4 C2.68 3.67 1.36 3.34 0 3 C0 2.01 0 1.02 0 0 Z " fill="#4B4B4B" transform="translate(42,16)"/>
<path d="M0 0 C3.625 0.375 3.625 0.375 7 1 C7 2.98 7 4.96 7 7 C4.03 7 1.06 7 -2 7 C-2.125 4.625 -2.125 4.625 -2 2 C-1.34 1.34 -0.68 0.68 0 0 Z M1 2 C1 3.32 1 4.64 1 6 C2.32 6 3.64 6 5 6 C4.67 4.35 4.34 2.7 4 1 C2.7763932 0.9254644 2.7763932 0.9254644 1 2 Z " fill="#242424" transform="translate(141,18)"/>
<path d="M0 0 C1.9375 0.3125 1.9375 0.3125 4 1 C4.33 1.99 4.66 2.98 5 4 C5.99 4.33 6.98 4.66 8 5 C8 5.99 8 6.98 8 8 C8.66 8 9.32 8 10 8 C12.1875 10.8125 12.1875 10.8125 14 14 C13.67 14.99 13.34 15.98 13 17 C11.20697179 14.73023018 9.41553207 12.45923756 7.625 10.1875 C6.86316406 9.22360352 6.86316406 9.22360352 6.0859375 8.24023438 C5.59609375 7.61826172 5.10625 6.99628906 4.6015625 6.35546875 C4.15119629 5.78465576 3.70083008 5.21384277 3.23681641 4.62573242 C2.09736659 3.12798345 1.04389771 1.56584656 0 0 Z " fill="#1E1E1E" transform="translate(198,17)"/>
<path d="M0 0 C0.66 0 1.32 0 2 0 C2 6.27 2 12.54 2 19 C0.68 18.67 -0.64 18.34 -2 18 C-1.67 17.67 -1.34 17.34 -1 17 C-0.76298761 14.14122091 -0.57780818 11.30116703 -0.4375 8.4375 C-0.39431641 7.63119141 -0.35113281 6.82488281 -0.30664062 5.99414062 C-0.20024738 3.99631195 -0.09959112 1.9981793 0 0 Z " fill="#ECECEC" transform="translate(92,17)"/>
<path d="M0 0 C3 0.125 3 0.125 4 1.125 C4.04080783 3.12458364 4.04254356 5.12545254 4 7.125 C1.36 7.125 -1.28 7.125 -4 7.125 C-4.04254356 5.12545254 -4.04080783 3.12458364 -4 1.125 C-3 0.125 -3 0.125 0 0 Z M-2 2.125 C-2 3.445 -2 4.765 -2 6.125 C-0.68 6.125 0.64 6.125 2 6.125 C2 4.805 2 3.485 2 2.125 C0.68 2.125 -0.64 2.125 -2 2.125 Z " fill="#1D1D1D" transform="translate(279,17.875)"/>
<path d="M0 0 C3.79598549 1.49128001 5.71720399 3.65733441 8 7 C8 7.99 8 8.98 8 10 C6.68 10 5.36 10 4 10 C2.66666667 6.66666667 1.33333333 3.33333333 0 0 Z " fill="#EEEEEE" transform="translate(56,26)"/>
<path d="M0 0 C3.79379058 1.49041773 5.68343758 3.69062512 8 7 C8 7.66 8 8.32 8 9 C6.35 9 4.7 9 3 9 C1.76078698 6.02588876 0.69941596 3.14737182 0 0 Z " fill="#ECECEC" transform="translate(193,27)"/>
<path d="M0 0 C0 2.31 0 4.62 0 7 C-0.99 7 -1.98 7 -3 7 C-3 6.34 -3 5.68 -3 5 C-4.32 4.34 -5.64 3.68 -7 3 C-7 2.34 -7 1.68 -7 1 C-2.25 0 -2.25 0 0 0 Z " fill="#E1E1E1" transform="translate(33,17)"/>
<path d="M0 0 C1.93166016 0.01740234 1.93166016 0.01740234 3.90234375 0.03515625 C5.19269531 0.04417969 6.48304687 0.05320312 7.8125 0.0625 C8.81152344 0.07410156 9.81054688 0.08570313 10.83984375 0.09765625 C10.83984375 0.42765625 10.83984375 0.75765625 10.83984375 1.09765625 C10.00839844 1.14664062 9.17695312 1.195625 8.3203125 1.24609375 C7.23363281 1.32085937 6.14695312 1.395625 5.02734375 1.47265625 C3.94839844 1.54226563 2.86945312 1.611875 1.7578125 1.68359375 C-1.34641811 1.90961358 -1.34641811 1.90961358 -4.16015625 4.09765625 C-6.49215013 4.17670689 -8.82848247 4.18564394 -11.16015625 4.09765625 C-11.16015625 3.43765625 -11.16015625 2.77765625 -11.16015625 2.09765625 C-10.02578125 1.95328125 -8.89140625 1.80890625 -7.72265625 1.66015625 C-4.02637385 1.07653271 -3.6179549 0.1118033 0 0 Z " fill="#272727" transform="translate(54.16015625,7.90234375)"/>
<path d="M0 0 C0.66 0.33 1.32 0.66 2 1 C1.175 1.825 0.35 2.65 -0.5 3.5 C-2.7614318 6.16275632 -3.34355513 7.88440321 -3.3125 11.375 C-3.209375 12.57125 -3.10625 13.7675 -3 15 C-5.33002055 12.66997945 -5.41956957 11.75309505 -5.8125 8.5625 C-5.92207031 7.78003906 -6.03164062 6.99757813 -6.14453125 6.19140625 C-6 4 -6 4 -4.69921875 2.27734375 C-3 1 -3 1 0 0 Z " fill="#BABABA" transform="translate(9,17)"/>
<path d="M0 0 C3.3 0 6.6 0 10 0 C10 5.94 10 11.88 10 18 C9.67 18 9.34 18 9 18 C8.67 12.72 8.34 7.44 8 2 C7.01 2 6.02 2 5 2 C3.32900023 1.68911632 1.66128463 1.35919668 0 1 C0 0.67 0 0.34 0 0 Z " fill="#D9D9D9" transform="translate(119,17)"/>
<path d="M0 0 C1.68762851 1.6454378 3.3540349 3.31288577 5 5 C5 5.33 5 5.66 5 6 C2.03 6 -0.94 6 -4 6 C-2.68 4.02 -1.36 2.04 0 0 Z " fill="#262626" transform="translate(51,23)"/>
<path d="M0 0 C2.31 0 4.62 0 7 0 C7 1.98 7 3.96 7 6 C4 6 4 6 1.8125 4.125 C0 2 0 2 0 0 Z " fill="#E4E4E4" transform="translate(242,18)"/>
<path d="M0 0 C0.99 0.33 1.98 0.66 3 1 C2.01 1.7734375 2.01 1.7734375 1 2.5625 C-1.31615264 4.93103111 -1.31615264 4.93103111 -1.375 8.5 C-1.04142937 11.61332584 -0.66128628 13.40424019 1 16 C0.01 16 -0.98 16 -2 16 C-3.23689062 13.52621876 -3.13310087 11.82084683 -3.125 9.0625 C-3.12757812 8.18722656 -3.13015625 7.31195312 -3.1328125 6.41015625 C-3 4 -3 4 -2 1 C-1.34 0.67 -0.68 0.34 0 0 Z " fill="#282828" transform="translate(3,18)"/>
<path d="M0 0 C1.875 0.25 1.875 0.25 4 1 C4.66 2.32 5.32 3.64 6 5 C3.03 5 0.06 5 -3 5 C-2.01 3.35 -1.02 1.7 0 0 Z " fill="#212121" transform="translate(186,24)"/>
<path d="M0 0 C4.95 0 9.9 0 15 0 C14.67 1.65 14.34 3.3 14 5 C13.01 5.66 12.02 6.32 11 7 C11.50603992 4.83125748 11.99983813 3.00032373 13 1 C8.71 1 4.42 1 0 1 C0 0.67 0 0.34 0 0 Z " fill="#101010" transform="translate(52,7)"/>
<path d="M0 0 C0.8971875 0.680625 0.8971875 0.680625 1.8125 1.375 C3.50590652 2.63295913 5.24477086 3.82984724 7 5 C1.22192976 5.2358396 -3.51324804 4.86783046 -9 3 C-5.67465243 1.89155081 -3.37817425 2.15545644 0 3 C0 2.01 0 1.02 0 0 Z " fill="#BEBEBE" transform="translate(232,33)"/>
<path d="M0 0 C0.66 0 1.32 0 2 0 C1.67 2.64 1.34 5.28 1 8 C-0.65 8 -2.3 8 -4 8 C-2.68 5.36 -1.36 2.72 0 0 Z " fill="#DDDDDD" transform="translate(44,28)"/>
<path d="M0 0 C0.33 0 0.66 0 1 0 C1.268125 0.969375 1.53625 1.93875 1.8125 2.9375 C2.204375 3.948125 2.59625 4.95875 3 6 C3.99 6.33 4.98 6.66 6 7 C5.67 8.32 5.34 9.64 5 11 C1.125 9.125 1.125 9.125 0 8 C-0.14115161 5.32941149 -0.04247107 2.67567762 0 0 Z " fill="#DADADA" transform="translate(218,24)"/>
<path d="M0 0 C3.96 0 7.92 0 12 0 C12.33 0.99 12.66 1.98 13 3 C12.01 3 11.02 3 10 3 C9.67 3.66 9.34 4.32 9 5 C9 4.01 9 3.02 9 2 C6.03 2 3.06 2 0 2 C0 1.34 0 0.68 0 0 Z " fill="#070707" transform="translate(46,32)"/>
<path d="M0 0 C1.65 0 3.3 0 5 0 C5.66 1.32 6.32 2.64 7 4 C5.35 5.65 3.7 7.3 2 9 C2.875 4.125 2.875 4.125 4 3 C2.68 2.01 1.36 1.02 0 0 Z " fill="#2B2B2B" transform="translate(179,18)"/>
<path d="M0 0 C2.31 0 4.62 0 7 0 C4.37271902 1.75152066 1.70651859 3.37608885 -1 5 C-1.99 5.66 -2.98 6.32 -4 7 C-4 5.68 -4 4.36 -4 3 C-3.01 3 -2.02 3 -1 3 C-0.67 2.01 -0.34 1.02 0 0 Z " fill="#1D1D1D" transform="translate(221,16)"/>
<path d="M0 0 C1.32 0 2.64 0 4 0 C3.125 4.75 3.125 4.75 2 7 C1.34 7 0.68 7 0 7 C0 4.69 0 2.38 0 0 Z " fill="#F4F4F4" transform="translate(83,18)"/>
<path d="M0 0 C1.10844919 3.32534757 0.84454356 5.62182575 0 9 C-0.99 9.33 -1.98 9.66 -3 10 C-3.36923077 3.47692308 -3.36923077 3.47692308 -1.5 1.0625 C-1.005 0.711875 -0.51 0.36125 0 0 Z " fill="#C6C6C6" transform="translate(220,20)"/>
<path d="M0 0 C1.32 0 2.64 0 4 0 C4 1.98 4 3.96 4 6 C2.68 5.34 1.36 4.68 0 4 C0 2.68 0 1.36 0 0 Z " fill="#F5F5F5" transform="translate(109,18)"/>
<path d="M0 0 C0.66 0.66 1.32 1.32 2 2 C0.68 4.31 -0.64 6.62 -2 9 C-2.66 7.68 -3.32 6.36 -4 5 C-2.68 3.35 -1.36 1.7 0 0 Z " fill="#C3C3C3" transform="translate(49,22)"/>
<path d="M0 0 C1.98 0 3.96 0 6 0 C5.67 1.32 5.34 2.64 5 4 C3.0625 3.6875 3.0625 3.6875 1 3 C0.67 2.01 0.34 1.02 0 0 Z " fill="#212121" transform="translate(122,0)"/>
</svg>
