<svg xmlns="http://www.w3.org/2000/svg" viewBox="0 0 50 50" width="30px" height="30px">
  <defs>
    <mask id="twitterMask">
      <circle cx="25" cy="25" r="23" fill="white"/>
      <path d="M40.5 18.5c-1.2.5-2.5.8-3.8.9 1.4-.8 2.4-2.1 2.9-3.6-1.3.8-2.7 1.3-4.2 1.6-1.2-1.3-2.9-2.1-4.8-2.1-3.6 0-6.6 3-6.6 6.6 0 .5.1 1 .2 1.5-5.5-.3-10.4-2.9-13.7-6.9-.6.9-.9 2.1-.9 3.3 0 2.3 1.2 4.3 2.9 5.5-1.1 0-2.1-.3-3-.8v.1c0 3.2 2.3 5.9 5.3 6.5-.6.1-1.1.2-1.7.2-.4 0-.8 0-1.2-.1.8 2.6 3.3 4.5 6.1 4.6-2.2 1.8-5.1 2.8-8.2 2.8-.5 0-1.1 0-1.6-.1 2.9 1.9 6.4 3 10.1 3 12.1 0 18.7-10 18.7-18.7v-.8c1.3-.9 2.4-2.1 3.3-3.4z" fill="black"/>
    </mask>
  </defs>
  <circle cx="25" cy="25" r="23" fill="#ffffff" mask="url(#twitterMask)"/>
</svg>