<?xml version="1.0" encoding="UTF-8"?>
<svg version="1.1" xmlns="http://www.w3.org/2000/svg" width="406" height="57">
<path d="M0 0 C1.18275513 0.00471313 1.18275513 0.00471313 2.3894043 0.00952148 C8.28931852 0.09148967 13.944835 0.751467 19.73828125 1.91015625 C22.58189655 2.26818017 24.67953848 1.96837613 27.4375 1.25 C27.4375 4.55 27.4375 7.85 27.4375 11.25 C23.59245869 10.63005675 20.46390239 9.44491429 16.9375 7.8125 C10.55105525 5.06410462 4.31848157 3.99358994 -2.5625 3.25 C-2.5625 4.24 -2.5625 5.23 -2.5625 6.25 C-1.99853516 6.35546143 -1.43457031 6.46092285 -0.85351562 6.56958008 C1.74494147 7.05984998 4.34116824 7.56110166 6.9375 8.0625 C7.824375 8.22814453 8.71125 8.39378906 9.625 8.56445312 C23.24008686 11.21739284 23.24008686 11.21739284 27.9375 15.5625 C29.78233499 18.86782935 30.13632896 20.52291219 29.4375 24.25 C26.13850948 28.64865403 22.72681167 30.32133766 17.4375 31.25 C13.66220569 31.50406137 9.90720037 31.48413323 6.125 31.4375 C5.14337891 31.43685547 4.16175781 31.43621094 3.15039062 31.43554688 C-2.41302221 31.40240941 -7.86918627 31.11083423 -13.39526367 30.4621582 C-15.8630624 30.18504819 -15.8630624 30.18504819 -19.5625 30.25 C-19.5625 25.96 -19.5625 21.67 -19.5625 17.25 C-18.9025 16.92 -18.2425 16.59 -17.5625 16.25 C-18.2225 15.26 -18.8825 14.27 -19.5625 13.25 C-20 10.375 -20 10.375 -19.5625 7.25 C-14.32429125 0.47114162 -7.99322858 -0.09443836 0 0 Z M-13.5625 12.25 C-10.49511201 15.79043095 -7.98425134 17.05385837 -3.5 18.3125 C-2.35660156 18.63734375 -1.21320312 18.9621875 -0.03515625 19.296875 C1.68380859 19.76867187 1.68380859 19.76867187 3.4375 20.25 C4.49066406 20.56453125 5.54382813 20.8790625 6.62890625 21.203125 C12.01621428 23.0211153 12.01621428 23.0211153 17.4375 22.25 C12.00253139 19.73760885 6.61643828 18.12488159 0.8125 16.6875 C-9.1875 14.1875 -9.1875 14.1875 -13.5625 12.25 Z M-14.5625 18.25 C-13.04586387 22.79990838 -9.68918847 24.09966823 -5.5625 26.25 C0.7543215 28.98189032 6.69047852 30.49900716 13.4375 28.25 C13.4375 27.59 13.4375 26.93 13.4375 26.25 C7.71360841 24.01676541 1.98820362 22.17815725 -3.9375 20.5625 C-4.74316406 20.33755859 -5.54882812 20.11261719 -6.37890625 19.88085938 C-10.41011395 18.68796447 -10.41011395 18.68796447 -14.5625 18.25 Z " fill="#00FE00" transform="translate(34.5625,22.75)"/>
<path d="M0 0 C0.78375 0.05220703 1.5675 0.10441406 2.375 0.15820312 C4.2920912 0.28678851 6.20861503 0.42378617 8.125 0.5625 C8.125 3.5325 8.125 6.5025 8.125 9.5625 C6.805 9.5625 5.485 9.5625 4.125 9.5625 C3.361875 8.758125 2.59875 7.95375 1.8125 7.125 C-1.43687812 4.02675575 -3.47733801 3.821186 -7.875 3.5625 C-9.09985812 6.01221624 -9.04222808 7.70484461 -9.0625 10.4375 C-9.08376953 11.73300781 -9.08376953 11.73300781 -9.10546875 13.0546875 C-8.86359252 15.6866288 -8.20483541 17.30230544 -6.875 19.5625 C-5.45749437 19.44740339 -4.04098831 19.31996342 -2.625 19.1875 C-1.83609375 19.11789063 -1.0471875 19.04828125 -0.234375 18.9765625 C2.22037697 18.54576166 3.91965101 17.68340052 6.125 16.5625 C7.115 16.5625 8.105 16.5625 9.125 16.5625 C9.125 17.5525 9.125 18.5425 9.125 19.5625 C14.82250201 16.36634033 18.56140557 12.02386661 22.125 6.5625 C22.125 5.9025 22.125 5.2425 22.125 4.5625 C20.145 3.9025 18.165 3.2425 16.125 2.5625 C16.125 1.9025 16.125 1.2425 16.125 0.5625 C32.73820703 -1.50041843 32.73820703 -1.50041843 38.08740234 1.7578125 C41.83718098 5.16968458 44.44356306 9.29521324 47.125 13.5625 C49.66365635 17.25106535 49.66365635 17.25106535 53.375 19.375 C54.24125 19.4678125 54.24125 19.4678125 55.125 19.5625 C55.125 20.2225 55.125 20.8825 55.125 21.5625 C46.545 21.5625 37.965 21.5625 29.125 21.5625 C29.125 20.9025 29.125 20.2425 29.125 19.5625 C30.445 19.5625 31.765 19.5625 33.125 19.5625 C32.63 18.0775 32.63 18.0775 32.125 16.5625 C28.165 16.5625 24.205 16.5625 20.125 16.5625 C19.63 18.0475 19.63 18.0475 19.125 19.5625 C20.775 19.5625 22.425 19.5625 24.125 19.5625 C24.125 20.2225 24.125 20.8825 24.125 21.5625 C17.79166667 21.5625 11.45833333 21.5625 5.125 21.5625 C4.135 21.8925 3.145 22.2225 2.125 22.5625 C-15.69166393 23.78364213 -15.69166393 23.78364213 -22.875 18.5625 C-25.67598593 15.51436826 -25.875 14.14610771 -25.875 10 C-24.67183496 5.86412017 -23.50230509 4.78834631 -19.875 2.5625 C-13.35827019 -0.61231709 -7.04697984 -0.51956546 0 0 Z M25.125 8.5625 C23.64 11.0375 23.64 11.0375 22.125 13.5625 C24.435 13.5625 26.745 13.5625 29.125 13.5625 C27.8160428 10.44052522 27.8160428 10.44052522 25.125 8.5625 Z " fill="#00FE00" transform="translate(93.875,31.4375)"/>
<path d="M0 0 C16.83 0 33.66 0 51 0 C51 0.66 51 1.32 51 2 C49.02 2.66 47.04 3.32 45 4 C45 8.62 45 13.24 45 18 C46.98 18.33 48.96 18.66 51 19 C51 19.66 51 20.32 51 21 C34.17 21 17.34 21 0 21 C0 20.34 0 19.68 0 19 C1.98 18.67 3.96 18.34 6 18 C6.33 13.05 6.66 8.1 7 3 C4.69 2.67 2.38 2.34 0 2 C0 1.34 0 0.68 0 0 Z M22 3 C22 4.98 22 6.96 22 9 C24.64 9 27.28 9 30 9 C29.67 7.02 29.34 5.04 29 3 C25.98968256 2.06576355 25.13349732 1.95550089 22 3 Z M22 11 C21.95758277 13.33294775 21.95907063 15.66702567 22 18 C23.11836224 19.34404775 23.11836224 19.34404775 26 19.125 C28.88163776 19.34404775 28.88163776 19.34404775 30 18 C30.16666667 15 30.16666667 15 30 12 C28.81575674 10.58422523 28.81575674 10.58422523 25.4375 10.9375 C23.7359375 10.9684375 23.7359375 10.9684375 22 11 Z " fill="#00FE00" transform="translate(186,32)"/>
<path d="M0 0 C16.5 0 33 0 50 0 C50.495 0.99 50.495 0.99 51 2 C48.69 2.33 46.38 2.66 44 3 C44 8.28 44 13.56 44 19 C45.98 19 47.96 19 50 19 C50.495 19.99 50.495 19.99 51 21 C34.17 21 17.34 21 0 21 C0 20.34 0 19.68 0 19 C1.98 18.67 3.96 18.34 6 18 C6 13.38 6 8.76 6 4 C4.02 3.34 2.04 2.68 0 2 C0 1.34 0 0.68 0 0 Z M22.75 2.875 C22.1725 3.24625 21.595 3.6175 21 4 C21 5.65 21 7.3 21 9 C23.64 9 26.28 9 29 9 C29 7.35 29 5.7 29 4 C26.05590637 2.06403854 26.05590637 2.06403854 22.75 2.875 Z M21 12 C20.83333333 15 20.83333333 15 21 18 C22.11836224 19.34404775 22.11836224 19.34404775 25 19.125 C27.88163776 19.34404775 27.88163776 19.34404775 29 18 C29.16666667 15 29.16666667 15 29 12 C27.88163776 10.65595225 27.88163776 10.65595225 25 10.875 C22.11836224 10.65595225 22.11836224 10.65595225 21 12 Z " fill="#00FE00" transform="translate(322,32)"/>
<path d="M0 0 C17.63461466 -1.29794758 17.63461466 -1.29794758 22.60546875 1.4296875 C24.37142144 3.51862916 25.66099366 5.61572946 27 8 C28.3662853 9.83487641 29.76311063 11.64735423 31.1875 13.4375 C31.82042969 14.28183594 32.45335937 15.12617187 33.10546875 15.99609375 C35.11326512 18.11980414 36.14578277 18.65192473 39 19 C39 19.66 39 20.32 39 21 C30.42 21 21.84 21 13 21 C13 20.34 13 19.68 13 19 C14.32 19 15.64 19 17 19 C16.67 18.01 16.34 17.02 16 16 C12.04 16 8.08 16 4 16 C3.67 16.99 3.34 17.98 3 19 C4.65 19 6.3 19 8 19 C8 19.66 8 20.32 8 21 C2.72 21 -2.56 21 -8 21 C-5 18 -5 18 -2.6875 16.3125 C0.79709994 13.31412331 3.54937962 9.89067565 6 6 C6 5.34 6 4.68 6 4 C4.02 3.34 2.04 2.68 0 2 C0 1.34 0 0.68 0 0 Z M9 8 C7.515 10.475 7.515 10.475 6 13 C8.31 13 10.62 13 13 13 C11.6910428 9.87802522 11.6910428 9.87802522 9 8 Z " fill="#00FE00" transform="translate(246,32)"/>
<path d="M0 0 C10.56 0 21.12 0 32 0 C32.495 4.95 32.495 4.95 33 10 C29 10 29 10 27.515625 8.6875 C26.34375 7.125 25.171875 5.5625 24 4 C24 8.62 24 13.24 24 18 C25.98 18.33 27.96 18.66 30 19 C30 19.66 30 20.32 30 21 C20.76 21 11.52 21 2 21 C2 20.34 2 19.68 2 19 C3.98 18.67 5.96 18.34 8 18 C8 13.38 8 8.76 8 4 C7.2575 4.99 6.515 5.98 5.75 7 C4.484375 8.6875 4.484375 8.6875 3 10 C1.68 10 0.36 10 -1 10 C-0.67 6.7 -0.34 3.4 0 0 Z " fill="#00FE00" transform="translate(150,32)"/>
<path d="M0 0 C0 2.97 0 5.94 0 9 C-4.17115572 7.95721107 -5.90972542 6.68878637 -9.12109375 4.05859375 C-11.52165804 2.70609287 -13.28894926 2.81864326 -16 3 C-16.02685095 5.47923801 -16.04676547 7.9581884 -16.0625 10.4375 C-16.07087891 11.14455078 -16.07925781 11.85160156 -16.08789062 12.58007812 C-16.09653588 14.38693559 -16.05220011 16.19387603 -16 18 C-15.67 18.33 -15.34 18.66 -15 19 C-12.99334886 18.97366836 -12.99334886 18.97366836 -10.6875 18.6875 C-9.90761719 18.60886719 -9.12773437 18.53023437 -8.32421875 18.44921875 C-5.91107698 17.9828132 -4.17956345 17.10101659 -2 16 C-1.01 16 -0.02 16 1 16 C1 16.99 1 17.98 1 19 C-4.04766864 21.47139101 -8.20890693 22.52352575 -13.875 22.4375 C-14.92337036 22.42614014 -14.92337036 22.42614014 -15.99291992 22.41455078 C-21.63268925 22.23530281 -26.45566012 21.47825067 -31 18 C-33.78504816 14.41922379 -34.10544437 12.87368192 -33.5625 8.375 C-31.39801296 3.699708 -28.92859845 2.17143938 -24.203125 0.28125 C-16.39783362 -2.01798312 -7.98207561 -0.67815568 0 0 Z " fill="#00FE00" transform="translate(318,32)"/>
<path d="M0 0 C3.3 0 6.6 0 10 0 C9.35702496 2.62573061 8.71075589 5.25057303 8.0625 7.875 C7.88009766 8.62136719 7.69769531 9.36773437 7.50976562 10.13671875 C6.11328125 15.7734375 6.11328125 15.7734375 5 18 C4.34 18 3.68 18 3 18 C2.49095343 16.12743583 1.99317545 14.25180659 1.5 12.375 C1.08234375 10.80878906 1.08234375 10.80878906 0.65625 9.2109375 C0.00881404 6.04312582 -0.1161292 3.22258533 0 0 Z " fill="#00FE00" transform="translate(189,0)"/>
<path d="M0 0 C8.91 0 17.82 0 27 0 C28 4 28 4 27 6 C7.99544419 4.25740319 7.99544419 4.25740319 0 1 C0 0.67 0 0.34 0 0 Z " fill="#00FE00" transform="translate(156,0)"/>
<path d="M0 0 C1.09054688 0.02320312 2.18109375 0.04640625 3.3046875 0.0703125 C4.40039062 0.08835937 5.49609375 0.10640625 6.625 0.125 C7.46804687 0.14820312 8.31109375 0.17140625 9.1796875 0.1953125 C8.8671875 2.0703125 8.8671875 2.0703125 8.1796875 4.1953125 C5.13287689 6.22651957 4.57850426 6.44191125 1.16796875 6.390625 C0.03198242 6.38095703 0.03198242 6.38095703 -1.12695312 6.37109375 C-1.91263672 6.35433594 -2.69832031 6.33757813 -3.5078125 6.3203125 C-4.30509766 6.31128906 -5.10238281 6.30226563 -5.92382812 6.29296875 C-7.8894515 6.26942835 -9.85492025 6.23355797 -11.8203125 6.1953125 C-11.8203125 5.5353125 -11.8203125 4.8753125 -11.8203125 4.1953125 C-10.7065625 3.9065625 -9.5928125 3.6178125 -8.4453125 3.3203125 C-4.84738996 2.20371585 -3.61052896 0.25003663 0 0 Z " fill="#00FE00" transform="translate(123.8203125,23.8046875)"/>
<path d="M0 0 C2.31 0 4.62 0 7 0 C4.35261084 1.4606285 3.10551666 2 0 2 C0 1.34 0 0.68 0 0 Z " fill="#00FE00" transform="translate(207,0)"/>
</svg>
